<mxfile host="app.diagrams.net" agent="Mozilla/5.0 (Windows NT 10.0; Win64; x64) AppleWebKit/537.36 (KHTML, like Gecko) Chrome/134.0.0.0 Safari/537.36 Edg/134.0.0.0" version="26.0.5">
  <diagram name="PÃ¡gina-1" id="Wm_WTs4ScM6aCYM6FFpt">
    <mxGraphModel dx="2266" dy="747" grid="1" gridSize="10" guides="1" tooltips="1" connect="1" arrows="1" fold="1" page="1" pageScale="1" pageWidth="1169" pageHeight="827" math="0" shadow="0">
      <root>
        <mxCell id="0" />
        <mxCell id="1" parent="0" />
        <mxCell id="C-7WZ27gIITwvjTkQEJg-49" value="" style="strokeColor=#dddddd;shadow=1;strokeWidth=1;rounded=1;absoluteArcSize=1;arcSize=2;" parent="1" vertex="1">
          <mxGeometry x="100" y="60" width="380" height="290" as="geometry" />
        </mxCell>
        <mxCell id="C-7WZ27gIITwvjTkQEJg-50" value="Kubernetes" style="sketch=0;dashed=0;connectable=0;html=1;fillColor=#5184F3;strokeColor=none;shape=mxgraph.gcp2.kubernetes_logo;part=1;labelPosition=right;verticalLabelPosition=middle;align=left;verticalAlign=middle;spacingLeft=5;fontColor=#999999;fontSize=12;" parent="C-7WZ27gIITwvjTkQEJg-49" vertex="1">
          <mxGeometry width="20.62" height="20" relative="1" as="geometry">
            <mxPoint x="5" y="7.675000000000001" as="offset" />
          </mxGeometry>
        </mxCell>
        <mxCell id="C-7WZ27gIITwvjTkQEJg-17" value="Another&lt;div&gt;pods&lt;/div&gt;" style="text;html=1;align=center;verticalAlign=middle;whiteSpace=wrap;rounded=0;" parent="C-7WZ27gIITwvjTkQEJg-49" vertex="1">
          <mxGeometry x="304.99972602739723" y="130.96774193548387" width="47.890410958904106" height="28.064516129032256" as="geometry" />
        </mxCell>
        <mxCell id="C-7WZ27gIITwvjTkQEJg-30" style="edgeStyle=orthogonalEdgeStyle;rounded=0;orthogonalLoop=1;jettySize=auto;html=1;entryX=0.5;entryY=0;entryDx=0;entryDy=0;" parent="1" source="C-7WZ27gIITwvjTkQEJg-8" target="C-7WZ27gIITwvjTkQEJg-28" edge="1">
          <mxGeometry relative="1" as="geometry" />
        </mxCell>
        <mxCell id="C-7WZ27gIITwvjTkQEJg-8" value="" style="aspect=fixed;sketch=0;html=1;dashed=0;whitespace=wrap;verticalLabelPosition=bottom;verticalAlign=top;fillColor=#2875E2;strokeColor=#ffffff;points=[[0.005,0.63,0],[0.1,0.2,0],[0.9,0.2,0],[0.5,0,0],[0.995,0.63,0],[0.72,0.99,0],[0.5,1,0],[0.28,0.99,0]];shape=mxgraph.kubernetes.icon2;prIcon=pvc" parent="1" vertex="1">
          <mxGeometry x="280" y="260" width="50" height="48" as="geometry" />
        </mxCell>
        <mxCell id="C-7WZ27gIITwvjTkQEJg-10" value="" style="aspect=fixed;sketch=0;html=1;dashed=0;whitespace=wrap;verticalLabelPosition=bottom;verticalAlign=top;fillColor=#2875E2;strokeColor=#ffffff;points=[[0.005,0.63,0],[0.1,0.2,0],[0.9,0.2,0],[0.5,0,0],[0.995,0.63,0],[0.72,0.99,0],[0.5,1,0],[0.28,0.99,0]];shape=mxgraph.kubernetes.icon2;prIcon=pod" parent="1" vertex="1">
          <mxGeometry x="360" y="192" width="50" height="48" as="geometry" />
        </mxCell>
        <mxCell id="C-7WZ27gIITwvjTkQEJg-35" style="edgeStyle=orthogonalEdgeStyle;rounded=0;orthogonalLoop=1;jettySize=auto;html=1;entryX=1;entryY=0.5;entryDx=0;entryDy=0;" parent="1" source="C-7WZ27gIITwvjTkQEJg-14" target="C-7WZ27gIITwvjTkQEJg-33" edge="1">
          <mxGeometry relative="1" as="geometry" />
        </mxCell>
        <mxCell id="C-7WZ27gIITwvjTkQEJg-14" value="" style="aspect=fixed;sketch=0;html=1;dashed=0;whitespace=wrap;verticalLabelPosition=bottom;verticalAlign=top;fillColor=#2875E2;strokeColor=#ffffff;points=[[0.005,0.63,0],[0.1,0.2,0],[0.9,0.2,0],[0.5,0,0],[0.995,0.63,0],[0.72,0.99,0],[0.5,1,0],[0.28,0.99,0]];shape=mxgraph.kubernetes.icon2;prIcon=pod" parent="1" vertex="1">
          <mxGeometry x="200" y="192" width="50" height="48" as="geometry" />
        </mxCell>
        <mxCell id="C-7WZ27gIITwvjTkQEJg-18" style="edgeStyle=orthogonalEdgeStyle;rounded=0;orthogonalLoop=1;jettySize=auto;html=1;entryX=0.005;entryY=0.63;entryDx=0;entryDy=0;entryPerimeter=0;" parent="1" source="C-7WZ27gIITwvjTkQEJg-14" target="C-7WZ27gIITwvjTkQEJg-8" edge="1">
          <mxGeometry relative="1" as="geometry">
            <Array as="points">
              <mxPoint x="225" y="290" />
            </Array>
          </mxGeometry>
        </mxCell>
        <mxCell id="C-7WZ27gIITwvjTkQEJg-19" value="" style="aspect=fixed;sketch=0;html=1;dashed=0;whitespace=wrap;verticalLabelPosition=bottom;verticalAlign=top;fillColor=#2875E2;strokeColor=#ffffff;points=[[0.005,0.63,0],[0.1,0.2,0],[0.9,0.2,0],[0.5,0,0],[0.995,0.63,0],[0.72,0.99,0],[0.5,1,0],[0.28,0.99,0]];shape=mxgraph.kubernetes.icon2;prIcon=pod" parent="1" vertex="1">
          <mxGeometry x="370" y="202" width="50" height="48" as="geometry" />
        </mxCell>
        <mxCell id="C-7WZ27gIITwvjTkQEJg-20" value="" style="aspect=fixed;sketch=0;html=1;dashed=0;whitespace=wrap;verticalLabelPosition=bottom;verticalAlign=top;fillColor=#2875E2;strokeColor=#ffffff;points=[[0.005,0.63,0],[0.1,0.2,0],[0.9,0.2,0],[0.5,0,0],[0.995,0.63,0],[0.72,0.99,0],[0.5,1,0],[0.28,0.99,0]];shape=mxgraph.kubernetes.icon2;prIcon=pod" parent="1" vertex="1">
          <mxGeometry x="380" y="212" width="50" height="48" as="geometry" />
        </mxCell>
        <mxCell id="C-7WZ27gIITwvjTkQEJg-28" value="" style="shape=image;verticalLabelPosition=bottom;labelBackgroundColor=default;verticalAlign=top;aspect=fixed;imageAspect=0;image=https://marketplace.cloverdx.com/data/project-info/AzureFileStorageLib/favicon.png;" parent="1" vertex="1">
          <mxGeometry x="281" y="394" width="48" height="48" as="geometry" />
        </mxCell>
        <mxCell id="C-7WZ27gIITwvjTkQEJg-29" style="edgeStyle=orthogonalEdgeStyle;rounded=0;orthogonalLoop=1;jettySize=auto;html=1;entryX=0.5;entryY=1;entryDx=0;entryDy=0;entryPerimeter=0;" parent="1" source="C-7WZ27gIITwvjTkQEJg-8" target="C-7WZ27gIITwvjTkQEJg-20" edge="1">
          <mxGeometry relative="1" as="geometry">
            <Array as="points">
              <mxPoint x="405" y="290" />
            </Array>
          </mxGeometry>
        </mxCell>
        <mxCell id="C-7WZ27gIITwvjTkQEJg-31" value="Azure Storage&lt;br&gt;Files" style="text;html=1;align=center;verticalAlign=middle;whiteSpace=wrap;rounded=0;" parent="1" vertex="1">
          <mxGeometry x="263.5" y="442" width="85" height="30" as="geometry" />
        </mxCell>
        <mxCell id="C-7WZ27gIITwvjTkQEJg-32" value="&lt;div&gt;pvc&lt;/div&gt;" style="text;html=1;align=center;verticalAlign=middle;whiteSpace=wrap;rounded=0;" parent="1" vertex="1">
          <mxGeometry x="281" y="240" width="50" height="16" as="geometry" />
        </mxCell>
        <mxCell id="C-7WZ27gIITwvjTkQEJg-33" value="" style="shape=image;html=1;verticalAlign=top;verticalLabelPosition=bottom;labelBackgroundColor=#ffffff;imageAspect=0;aspect=fixed;image=https://cdn4.iconfinder.com/data/icons/ionicons/512/icon-social-github-128.png" parent="1" vertex="1">
          <mxGeometry x="15.5" y="192" width="49" height="49" as="geometry" />
        </mxCell>
        <mxCell id="C-7WZ27gIITwvjTkQEJg-36" value="Github&lt;div&gt;repo&lt;/div&gt;" style="text;html=1;align=center;verticalAlign=middle;whiteSpace=wrap;rounded=0;" parent="1" vertex="1">
          <mxGeometry x="10" y="160" width="60" height="30" as="geometry" />
        </mxCell>
        <mxCell id="Cf7rIsydK2sru3dkDI3N-1" value="" style="aspect=fixed;sketch=0;html=1;dashed=0;whitespace=wrap;verticalLabelPosition=bottom;verticalAlign=top;fillColor=#2875E2;strokeColor=#ffffff;points=[[0.005,0.63,0],[0.1,0.2,0],[0.9,0.2,0],[0.5,0,0],[0.995,0.63,0],[0.72,0.99,0],[0.5,1,0],[0.28,0.99,0]];shape=mxgraph.kubernetes.icon2;prIcon=secret" vertex="1" parent="1">
          <mxGeometry x="130" y="262" width="50" height="48" as="geometry" />
        </mxCell>
        <mxCell id="Cf7rIsydK2sru3dkDI3N-2" value="" style="shape=image;verticalLabelPosition=bottom;labelBackgroundColor=default;verticalAlign=top;aspect=fixed;imageAspect=0;image=data:image/png,iVBORw0KGgoAAAANSUhEUgAAAMQAAADGCAIAAAACDLg3AAAgAElEQVR4Aey9h3sb15Xw/f4v75fiwgKiE+ykqkvsxNnEKbYsiQQwDSApyUW248SJ7U2cOI6dOE7fjUtc5CKrs0miSFEsYq8gABKFnWInypTzfudeYDhsEiVRKbvhMw94AQLDwcxvzjn3tPt/4H/fjwzy1jaQAbfFGEgAk3FoCsAP/tz7yNGqfP7sQ89f3XWkfmfZ+R3s8R3F7z3/VmtVO4wtQwQgjp+64b9I7Fz+H3T+/8//oO+y1a8igbRm015RGWSJABEDJGMRYFqB6h44+nb7DuZYZslpK9dgdnWnc71pzm6ds93MtuRwDXnOqgfcVQdebPjsCsyRD0YAYmQ/EmGLYEnhXMEo8XyrB/7P/r7/XTBJoJBNEkESIS6RTVEkRQaQQIqI9HJFAeYBmZgAaByD4l907DrSoj9YaeUaLFyrkevW8/16zpPB9mew/Xq218h0W9huK9NpY9rzmHrulc7jV2BExJ1Mx3GXoizHo8uEUhmUFSbuDEx3Zq8rR73p6H8XTIqiSCCJSkyECD4qMVmOybKoKIoigxSHmATzEiwBTAJUDsj2V07lMx/b3FdN7kFLqdfo8hj4QT3nIZs3g/XgxnjJNpTB4GZ29uc5Wh8ua/resxdOtsLwIlyTYSaGF0CWReRJgcS26UW5zT/8G6bbPIFb+zhCA3EZFnAjGMmyKMsxCe2i+CxAKA4zADUeYH7aUug8XcRfyHTU37Pvyr3FXRlsv1HwGwW/nvPixvqTGK2CSe/06p5oy3iscbe7fzfb8HDpmY+vxAMKqss4gKjECE3kcFWq6GBrX2EL76IwaR+38KHteMv/LskEsgKypMgRWYnIsijKEFMgqkAElAUAbwzODILjZy35JWeL+FZrcWsW159xsNPM+/WsP83hSbUPZDBDenaYblQUrX/MLhs32H0WR1C/r8N2sGGnUPnoi6c/ar4WjqIRtqSgLUUMqeQF/DdMyTPxr/o7KqEhHAGYiMGUBHU+eOyl+gLXxXxXazbXa2V8ZiZg4oYMPKUnqGNxy3AG9GRAn270GE5zBsylkykH/WYuaHT2m5l2C9OUy9R8+3DNJxfFjjEUfouEJwVgOUa03jacRXUWoZVJf1eV979MMpE5FZB51lQExqMwJkFFF5T9vP5B17kHjvYbmW4T48l0h0xsyMCOGLiQgQvpmbCeGdWxuOmZUT0T1rHhjTAKktfDGcL4PfaAqWwyhRlKY4fSyWZ09heyHXn7z37/+eq/VE34ozBFbPzxeRA1JvmtQqWF5t8w3epZvNnPUf0yJcI1gNMt0oEfnC8sPp3nqLM5Wu967Kq1NGRyDemZfhPnM7EBEztiYMcQIOe4jsFN7xwnYF2PJwM3nVI8koCJ86bwuKVxnlRHR/qBhly+Jcde8aD71NsnJj2LsAywSGZ8N/tFVr//3zCtPh/b+ky9OxNOHeo6igPO1EZlONkm7/9h1X3cuV2u5h2lHouj38wE9EzYXDp+d3FfZnnIwPsMXACFEzuBAN0MTOnOCZN77u4Sv44PpfLDqYI/lR9Ocw1llAb0gs/M+61M787S7kJn9TefqXrri9GJGCwTQyqetKUSGkv9Ejc2qv4N023jo57t1QOZ6DGcjsfiERGkBUmOAUyJMBaHE1dhb1lNntBsdTQaS64aHT0mxmtkhoklFE7nwulcMJ2jFlKYqrZ1j1QsJR7p+zWP4TRmJJUbTeXDacKI+rqOD9Hd6tmgkRk2MV4L029lOvOcDQ+7q1//INw7BePEKzEvRqNKLBaLgUjgEpP+TtSGMuCrq7/ujZ/e9one2g7+5W2mjc6rKENEhogE0kJMuUYYCovwcePygRerdruqbK4eAxdIzMI0BjUhKZzK45bOjqobtYQ2e1RxUQd0D4n9IJ2JTbsHYoeF9UzYxHizSprzDlZ+88mKXx7z9c2h/p0SYVFCvxdxJyTl1b9h2hrT2/UuWQac78uwFIfYEpmpTchwpgO+9fSFHcLFHUc6s9zdGc6+DGbIwAWMfBDt6+TsbDOY6OtaFLRjlaF0LqjFaIswGVl/Xrk3392V7Wh6oLzlobJzv/ws6BHRPF8iPCnUyqM3Dbrqb2HbrtN7g/38i0smrd8PTzOG1WhMbR5gBOBsH3zz8JlCR1Wh0J7ND6Tbe0yuQGrJYAYzZOSDJgHna/9YmDKcAZ1zUM94DPbBjP0dOezVnWXnH3z2i5f+1tk7irb5UhzvD3nVN71Znm4AwXb9+V8cJs1piMqKCHBNhAkRxmLwaRPku76wuS7ZuDYrO2BlhqxMwMwOmdkhg92ndwbotN/AjpCpPhpJqj7CwXXV3Kp3ckQtJnXZmj9pn2rlGVVz5JXRdHYynZlOZ8d13HCas9ta1plmr8nlL37NUfWz34X7JnDSsAgwG5NFBeUS+RGJ8bTmcTPINKfpTg7/J8CkENG/SGZqwRj85cz4N1xfFDqqzHyXzuXT8zgpM+EWMjMBdEU6g0YmqGfJhj6khNNIe+G3DtN6dbZqPxrINoQpnR1PZWdS2LkUbjKFD+vcw3czPaZDvgxnz05u8D7H1aJ9x579dXPfNQw8T8dhJoKCaiOSrmOY30mCNPv+l4dJIuc1vAz+RXi3avY7T14oPFhT5Gy3lfSbnWMGdoL4HgMGfghn+zyaSgmMEqbSiscoCcFqEcWtmrtRIJLvRMv6ZmFKX7VDNPNTufFUbjyFD6cIw2mlw19lBnSHQ/eyvkz3uKnYU8QP7Oab9jhOvPquv+ca+usX4pKM09M1YunfMGm4VodaYS0BBmcxSwQNUTxfJO8MY1txYh4tAnij8Enz3PeeP7uLqSx0tBUJAYt9SF8cNDmvGZhrFCa94MOND+j50Grn9YYwreJJK1G2BSYNT+hVR55wChlM5Yfv4YcyDo18xeFNdY2k8WOWsikTG8rmfNmOpnx75S7+2E/+u709CNdiiRgfdU2pNrp6Dv8hg38uyUQxkshcmLKDdx/miMRkZQlAkpWl+eisDOg4ngEIx+H9OrGQP5vFN6JtxPWYWeq5JsEQdkzPjen5EN10fIhuSTeS6kxSp+7UckI/0+ptZXqvlUlbGa+Hj35qDaDJXQXTmQCx3oIJvxQePLo6DcKASegxC21ZQn1+yemjbw80hHGGMQUwFYdFBRZiSkSStPchKsNtCNTcBJb/bDCh4JHIpIzChFF9WYoqkaiyJKKjGK3RaYBRgLdOje7hju101Zm5PpWYzQY6fkTdKChJ+YSSKXmB/2EwqWwlDXNyJPxwOnWgC350o5NNx3tsQp+NuWx8/GP+9abGUczguwawALAsgiihzFY3la2bIOI23vpPBRN179KpfUTGTLV4TJEJTLFFkK4BDEngjcPvz07cx58qdF7cU95vtvdgbJ9LiJ+tw5SUPStSh+KVTi5h8q9rRNQq9ZcUJyt7WP/KesmEHlGNVa5ReYj1pjDxwxiZwWPzWso86SUt2UJPDtOYs/8k/8v2ykEYA4jEIR4FUUzYAMTlGSMJf3JyDngbpGzho/+EMIk0GCJDTIQ4xkEVmFdQGg3K8JfGqa8fPbHTXWM5cMXm8BiK/VZhPBHbT6qzDXlSxZKOXwlxrLuoK/LgjsK0hidVLG0MUzK6R2FKFfz3st2mMq+R9WOeTHFnoaulSKgoe72tw485fvPEnCIZ6HIcEjAlTU9qgN4p5fdPBRONPeEtQDKNJACYlGEWMKb215qlh49WZpdWGey1We5+MzuUCOlzI6vo4Ub0a14hkK2GSSMbqD+JiIqk4kOktNtqsDSf1QgYLRDrx1pq18/+tO9fJZmo6UYlJVV5FCyX516mN/NwOM3h0TuHjI4hi9Obx/TvdTYffn2oug+1HkmZwhNIM9BlWU5wpPlF/7qNj/9sMCWccjGAaxJKI88ivPGZd4/9b7u4KqO9Xsd2YP41H0BiOGJf46OGpzsL08YkrVFVWjjoeDth4of17kA67//K/g5L+YhBwFyrDMeE0T5mPDCYbW/dwVccfLmiZiASjsK0CAtxrJqQV/9QorYRI7qrvzdM6o2x2TeRAK7FYSIOQ0vwyw9893Of55Sc2lF2xexstJYNmcpGDGVBPT9EtlCSp78PTIQkjSRLIEJeWQ+Q9pVtgEkzwbzrgDf78IyeHU5zJNLSSTqo38APmblBG9e161Bbvv1z96+aqjwwrqDik0RJxUl7CdTxtuD194JJDS3JCccR8RvhbGO936h7Gn5/duoh98k9woUdpe1Wx9V79l02ujz3Ov1pzEiGK6gTKEyqfPq7w0SR0jxq0Vk/3kaYdGzYIkym7h+y8CN61p8olREGDS6/+dCYuXTczIXNDk9hWf/eI22F/Enm5xcaBqVrMZiXcSJMq/kwtwUjM7ICccRIBrptdodv8fU7DJOGIZxjEJ+tIoIiibIYUdCNK1Mrex4wm6dzDH57cj6frbSxzVa23cL0mhiPkcVqEB3nJ3YMhj70fIC6YbQXafOxmp+kWkIbOLU1BNC3bfYekr9Lsi5p7uXqbKeNP6U9tvU2k2qTJb+guhM8EvWvGvcYmfSxQR03nM4O6bhhjTM28Scj6zcxHhPba2Mbd7uqHv9h5aUQBGQYU9AGnSa5UlFYEGEB61EVkGSyKRSylcyELWJE33aHYaJ+M4oUKXREnrDkR1YkMS5h2to8wIQC3iV45b3++12f7y6tM7G9Wvt3/ViPiWabmi/r/rS9MCUz5ihPJDGcgEiTxFUOVg20h3QdmAgu2g9uBpN6VySyzvXciOZmoHugxzOK0svebHJU53Kff/dHZz9snAsqifTzZRBjsETqUcltruAjkVj/pDDRBCNRxuMkEwoRIAoQVSRSoRaUoWUcfvyXwB5n5V73lQKhweS4YmQ9alrIepLoK9rLc6Px7cOkBUV7IbVj7SXUAoFj7RHeKky4kyQx6/+v+id1kIBJxw1bywfuLa7PP9yX52oscJ797gsX3m9Y7plD1/kyxhLkKFIlxhQZRdRt+A3urGTS9m+QUKMpMRmiIkTjMC9C/xIc/kPnt55tynfW675bn7GvRV/Spme78WZaPTlfj5T28txovI0wBdOYQR3v1fEezaZVwVrs1Ot652Ba+RdJztRXkjCxQfPhQNZTQZ1zwMwN5rr7coXLuw9XPvFSZXU3jEVR680rSJVqTt2yh/POwpTQuOToaCRkJAZhCRqG4YU/D+UzF21Mu5XptjD9q2wjbng9PWte2RSg9bOtRE63epZXDZJ+nVUvai6MeklImgrnT2P77ra3pbLtpvJeU3mv3tWTynSmOnvTWS+6u9Y4LKifgluJ5Oj4kTQBt9V+rxXDSPOvNzukNa9vjC+15NLZ8XR2NEMYNZWNm8snDMIwaY7QaeJbc7iGB/mLwktXP2mQwiKMihiQmY7DfBxNKPqD9c8383NnYaIzBVGEZQlmFYwitUzD8+907nQfLxAaLE6vESuHwiiHuOHEdiOZdAM1d0swJUvh1lynpHmUMIyC6axH7+ozH+qzHOk2lLXqS6/qXK1pXFsa26XjKUyq64t4v/7RMNGUhCRPI6byUIbbr+O96azX6PQY9l0tYloKHRUPlX7++VXRH4FgFKZiieiwJEqxWEy+mUjMnYUJiLU9GsG4bI0XXvjv/iL+i8LS2rzSJltpr4ELYXohXirVCNBeTvXFDQa3I5nUz6rhi+vKp1GctZGD1AuDBnevztWa7rqsL2tId9elCfU6V6tO6EatxwbR78VOEO8XccT/I2FSzyS9Uf0Gl9dU5jeV+Q0uP06H2aDRFUop6dWXdNz31EARe/67z1z6qAEdxUsSxONx6ppaL5ho8Ji8vlYfbhtMxFuR8F/TeEicqOE5gCsT8NR/d+Zxn2Y5qwvKOvUlbTpnp+0QCZoSOUxkO05MyEUdTYr6DRhSsVOBWDvYgmRKfgTPMk2UMzrDRueo0TlONqzZNbAj6v9KFCex/Rau1cJdMDpOfuunLT+tiL7XDc99fO2+Z+rS95+hycGYxomldrglgjwJHTem48eIagvphADdiFpESUaOJ6Hpkt9dReGGg83UHH4wmQZIm21gCxeDy4/KzhXW8SOprhFd2bilbMLqCmY6ugvY1t1C3befrqhsj44vkwyNZF2Mmn2gGWiGSeK2DSZJwaIQMv1XJAUPZSIOrWNQ9uuubL7aJDSauHYj12viBknS45AmJII3Mb0A9HH1Cd0YKa33RTNeZeomoVmZByVewWS0YDqxo/UcFs2ZHKNW+7Ws4lnr/inzgbFMZtzIBFNK+u8q6Uljewz27gJXT1bJhd3CGf7V+uNt8VGAMRl7yV0TwT8P71bFvuauyj1Ym13SaWN8hmJvpntc5/SZy0Z0fAiNJH4ijZ/Q8SOYQ8wPGoQBfOQCJmbCwEyR6d6K2aT5OuqL5HupPlKtW0R9kR1Nfl/8lOYckhOYtCKIRypgENAETOeCaWwgncGqLz2aHP1mZ7eFadp1pP7hp8++fWJyQgL/BBZoyMlURG37MjJDp1Z7QkRtJ0yROMxHMHFkSYLAHDz31uX7y87auHo935/I6+CHNwjKEl2wTTBtmiJCTy6ebkyTxczGdN6fLnh0PIVp3Fo8bXp8Kp9ZyuVmjAd8+uIeM99jKe2w8A15zpo9zGnh1ZYTzaSojRTgovQVJey4BDAjQsco/OG0+B9H6nfzV/LYTuOBdpswmF7SpxMCqa6Re11j97rGMHnSNaRzDehdfQahz8T5zMyIiZnYAkxUiidL+W4OpkSGOxW06vmnT9MZhGnVxnqNZX1mV3MeW138k+aL/TAeh8kImucUHDW3EyN+KEBoujBKp9uFiQo7quMiojIfg4gCLf1Q/GzNffyFgrLO7EPE4kuGvtUvQ4T8imHxd4IJ7+PxVHYS064xrwjvWqMzbLGPW+yTmfxS6sGR9GJfjtuXxbWZS2rMJV/kOz565Z2+C93KlAxji7AoQiyuyGIMJKwYFgFmoximmJEhuIQzjM+axG89WZ19oCKHabQJfXrBd6878JXywJfLA18pC91VFri3dDCttE/v6jPxA7TXio4NkpxdfNxILNEXNxG6m0qmjSW6ev43g0nH+Y2lg+ZDAyZ+INPZUshUvvSeLyAhTLQTEEldlGl9KBVUqum0PTBhEJEozsk4XOiAh4qPf83Vkc95cw6NfWl/jyqW0v/Bkone2QhTCoc8paNZHTYyQYsjaLaHMpwjRj5sEfqtzvocx8n7y794+UNf6yRMyDAnwbKstitRQMQ+qNfmrokAi7JEMxtFcu9OieCbh08aoOSV9jy22ipc1bt67i0buKvc95XyIQKTL83l0/FeE+dDmEg85J8HpnR2KMPtTeE9Ge6RnKcnba4um/3Us39soY06abJ5HBCmGNlIN9iE0XS7MAHaaIokSvNR2T8HFwfhAe5UQUmTrSRodEzqGLxg2rtNvTPWSCbioUkIKo2+XyWiVYt4TcRKu/+k3bD2Pk76XRKSKYWbTmUncS7pCKQd6Ms42Glj+wz27myhJ5u7lO/87Ad/6WiZhKEY9iNUe3OR1pcK5jLGYyBFYpjbKEYhFlNkDESQ8FZMxiDkPMDgInzSIn3nx7V5pecNbKPe1ZfGee5hPHeXeFNKhvSOkMkZtjjCJieKkFuAKXmWVgzw5HenNtMmkolOMGmO18okeuXNJFHYm+Ly3uUK3uMaNri8NlfXTuHyf747vgyYgED7fsaTqdWJ6lCC0+3CRDJtlZgYn4nBYAS++dyZHKZBt79P55xJdy6QSXWiFQS95P8EMGFpUQqP1UXpXNgoDGcKgxau1VBcle08Z973/g/f9TdOgG+JOPFE1GVkXoH6HDMdZEnB9qoxRcbGmDGy0eaCicA7EdEKCRpdA/DH4FgL7PtJQ3bJmaKy1hxXr40ZtNiHzPaQxT5qcqJcJHXlCZ5W3xhrtN6qO+ROwYRF7sMpwvA9rmCKENS7Qzp7f16pbw9f99GFpWtxDIYtYbtiAlWiYui2JJOqJdH8FEGJxmNTMSj73VVbWX3OM+E013gKO5PKThpZv5H1YHA7mY5zJ2BaLbFWnfHkzZpwPxIxGaYni0zo/Cn2ztTiej1TWVj22Y/evdJ1DYOg00QaLUvKYjRCYaJlDiQmKsUghtIIsLmqgo0xY6KCifxkQzctnlpSGIoNNABGFrB+8rJH5F+q+Wb5xcIDF+4T+nNKPFaH38Rgg0MUBljndH2bKWk5EdWcJEl1q6IjIPllb08y0Y4JHHrX9Mxo+gFvrntEb+/OczXue76mfQRmFFhEcSRieIyquiQOtyaZqNmNJ412r1kQsepoZ/k5Q2n3Xaz3S47g3dxEKjdqZD0mtl/H+TeAKenQ0yo4OtacqRuoOYpR0puC8+HkCV0Z0L2txNW5YZzECb16vtvEo99ox5HqZz8O1k9CSIRrUnw6ih2cMYwYi9F6PUoJ6WIgxUCKgkji7SKKKBEfZVmkXaBJ+176OmmXGUuEI0SITi/FIgAVzXD0l1179p/cYa/Pc7TamHYT26tnaXYNQpDGkoQIalZzYWJu+nHiyfsxQoAd61Q/HHVBbbOaQ53LoTGgd46bHOPG4kDGAY9FGMoU2nfwFb85MT4mUqGE4hnFFPUc3LKaS4p93IFIWovOArxx0pcl1OsFH6lNG8EQNz+C/bIwKxLTj5KbNixFXXn4mMyZpIOVWd561LSvqHXfJjZEvYV6DveWDH5hyQopNwioLU31jEfvbM12N9u4qmzHx68cG2qahmFSghcl9wa9UWRQk/hWOo8kM7LwWydT9LE6VFFWdanHOj8puaHTjTYcx1YIywpOCc93wvO/7dtZ/Ple4VJ2SUMWM2Ao9hodQ7oSf7pzBFsPOOdS2Rm8qOi/6Nfx/RiuYYdXO3XX+zM1po/WfXCD8Yok07NqVBSzgYkjd9ToDOvZYSPXm802PPJ05XA0CZNMVm6QVqrzbkUyJWAiWUpRGfvUBgEePvopzlw2KhFJYkR52n6YzEzIzKyCicRTQ9TjjL5Bzqe3d6fvv5qBDXSvFpbWZhV/8OMP/G2zEFJo+r2k6c9NexdsABO6ZEmSRuIxgdR6mGh7caIHIY7ZjGSLi1EaX5qKwGgEzveB8Mqlgv0f7WYbHjjktR5oy2K9RiaoY7D7AIUJa5sET7rQjy7WjSWTFqltgIncdUFKLWngSXt4BvWc1+bq2e2q6p/DeiFiSRInG5FJ9OGWYSI8Yn6xeE2CgSV44PBnVr7tHwTTCHr/WNLMlM5ThECaK5AqoJ9QJwyZ+L5Mob2orKXIVZfv/OzpPzY2T2Gh2Rhx7E7H5iPKrIwGdzzxrVB7bxWmpLW0IpxIh/EETxQjUKJkNi1HlyORZVECGJvFjl5TCjR44fCr9V/nz9zHXNrFd1id/XoWTagUPkx7EOBYQIuYbNgCiqry1cYARerOwmQReq0HTpxpjyd6cGJKkQalW3NaJuwtIplipGVs0yjsEr6wcl1/f5iSmo7CRLQqthUY1As+ouxCJn7AxjdnMed2l37xo/d8LdPI0AygIUkN5fnlSUWZW1wcQaWNGCUsQppjr8Yc6avrJdPWYIqDGFEiMYhKSlSKRqQlkjM7uSRPk5rJum44+qvm3fbP852XrGy7nu9FI4lYSOlcOIUL3M0H7nIFyXQd7fSNSFplX663HTd/RavmgqjRGHTkJsVSUjKxfiPXa9x/9mfv9k9F0A+i5u+rQN2aZCIfT16MWYAPapfN3/3YyvVsApNWtWnHKzYTiYMmnmqtoq2NiaXFhwz80D0HO+49eFXPtece9hkcAzmCP/2x6kL+7NG/dLfOgk+GQBx7HSV6iGDynpxwZ0sxUpiOOo6YQSpLKzaTCtrqwdoFnBJ6jdhSiZYbCik4StQqo9tAFkmLOwW72i9LmJs2IUJVd/TIb9uySo4Xlndn8v1F5eFc94iJhM9SuMA9ruBX3cG73Fgzrs45tIOtzGoTrYJWWVEUJpRtdG8bwqTj/AZ+0MY1fKv8i2tx6r+VifdyJUnltmCiU7kZGV78fe/Xylqs7MDfHyakkJsgLIaIldptFjosXLO5uHa3qzV3X8ULf55smYAAUWpDkWXaWk5SSD2GCIoIclwhNQ6yQsqB6OVfQQlrN1bk1UbjG8OEeEkyIowpyyDHyP8lIFOdGFVi84oyAzCwCGf6gXmtawd3oZBpKGDac7GPqs/AhVJ59CLe46IwbcDTdsLEaM0mIvO4YR3vzXa1fbOsKryI8QAJv4cYwwhd4udWYEp+FveyDOCdhvsPvL+HbbGygzcJk1ZKrYzXSyOal7jJ62MkJj+mEwJ6YdAkdBmZRhtXv9tVc+jVxmYPXFNQqc2T1g7XpDhdW0kixT0YpiW+I9org1aWbR0m9TysgS25h8REL/lUwf9CBBKmxOOUT6SLAYkK+tDRv6ygFTUDOC2o7FO4VxoeKa3Levx81oF2q8OP7k3SbgATpzbatgumxM4TvfMT1hhxUnitfMcee2VnEBv6xEGOYFwJWz/Sn9uBCTuYzUahKwx7nadzHO1m1ndHYdKmuiJYibpvMkkUAgZhwMq3GQ5U5jrPlL7lP9EBk1FYIO7/+Ria1nOR+KIUwzgaiXsoMrm0xEFEri65wFhGTSFYkU0bSSNioq8SWMkzmrDcV5FEPVUIEHV0KqtIQqrw9UQi9gLAWDQ2IeI6d6ea5Kd/1bvHWZ3vaLY5u41cP1kDKCGWdI6hJFV0OZctGOCqB2tF02nUHMl6pfvUmmXoJsRQvT+9pDXniaqzV2GBwBRHCYuS+zZgojNDTD/An08uLJoPVqU5e8ncNfF9tFRpIdjKeBMJNJLKhw2HpoyHplL58N0l3sxD4waXP7M8YBS8WeWDmczlIr7qqbf66gZRDo0vozmi2ssJYUAup1pziDzRIDh5pKvRJWFaoUELU+K04S+12zgx26k/gb5VrRZMTnYSaV6gEGkkioq4/r/Q/652w6EB1CjAyDJUtCtlb3RmFZ8sOtxmK+3NfvAuvtsAACAASURBVDKc6vCm2YfT7MOY1scEjawXqwtxhaDE+Ve9xKsHK77cNfa4Fh3iF0iY88mPk5gY789guszFdc/8zo/CPrKsORs4vDXJhEEU0vIGy65+8/G43tFwN+fTVAkGtxcm9F/zIylC8Mv2wa+UkH/kHDSynvwnvUZ7Q1F5U1bxyQOvNB1vwyUDJ6JYYB/FTkXoMKSXjVAkJhUZkTpU090iTCSMhMGSZHbYlmCSRAVlEIohjXmuHWsujwRomaDffBZgOAoV/WB/tSnHcTLjiXNFR/rNzl6zw2tyDmNH/MSqZTeE6Qb5XjQcvh6mRLoO58eVGkuaH33hSmAR24sljjb5+7ZgigGEZqH8tXYj05zmCtw8TKpbfNVAK5nUPCc9H7IemchwBY18OLd8Itfly3jicg57sYj/ovjFs59dngnFYWgBV8ldTgiNyMpCl2haUyWDOCUU2DqYkoptRSYlQCQ17GsMI+JHoDBpeKIySUOEdpiAhvowbwAT0bYQF5UYLssp4/eaJitz1nnhyK/rdzk/yj54FgMyDo+JoRlj1Kt5fcm0JZiSUoqqNho3JLlf3LCe8xidV7OLP2sNYtN+9Jhpfm4NJhTyEohLAL2T8OjRSxauVSdgnbJqA25NMq1iSHWUbwgTTmfsAxZhyMYPmYrbdrlbdzjPfef5qj+eG50hFzYGsCTD7HJsMbYUkRdj8jw1bxNA3BGYEq2kyP8nAT0S4EUoky0VNKcabgomXA5PEeNyLCLFlyVcrGBZgcl5cXIRvasXe+Xn3+64Xzib76y3Mp16Em/Rnv+kekJ7aPW2saZLAqSN9CXsfRKBxpab6TxO6PRcu81+6mIPHk90W2CiScHzAH+7HM9jzuY/ifmv2i+zNZhWZnDrbSmKFJVMtPFyJh8yFfdaDzYXMZceLj/zu9MjgxEYjZFWxsTWWDGGyH1P1ktVxUxS7qi/k90aNJ+if1M/khhoZZKmrBQNdsrKUjQSk6LRKNoQC8vzCeuHWGyJnSf+KdnhFiQTseVw+de4HCMSFScNGA4kvoxoBCcWoUU41yVyv7icy57OcbdnOPs0kbUVgEju18YArTGb1KcULESQ5scmV15IEYKpgl/P92Y5q39zLDg0iTwlYk/kRNyKZKJNA2IkVeOF94eszPmsQwN3DiZC0oiZCVgc/ZYDV3a7Lrx6bPpKiDSLITYLTidUwzVhLa/HQoUoObhVmIiVhf8QF/qRYTECc0uY3EOzEKk2pQSI6r+4JZjIcsI40RPp9FM10UVcVmUhjp3QAgAft8O+n/YaDtZits9qA5w+VSnZ4mAzmO4RsLl0utCfydYefq11YhnzlWPUGX47MNEypgmAb71UbxIaDUKPgffdIclkYkfMTMjKDhaVtn/92cunveCJwwjpKDe9uIwnWiMDcI6FvRdw+VS6JZRLEqGV3+qVVgfaS66xabRhFnX+hw5ICVMtF6MwtwQLUfzPdAoWI35t6m5IHJt2zxrJRI4z0ZiaHie5KPhA16ZGnjDVQ4mBEiEbzdYDkpw2T5xSYYDeKDz8zHmjs43U7mGRFlVtBKabE0tqRwOtZKLtzu9yjd7lCqa6PFau4TtHKn3TqHCjtMf9rcFEpUCc+HKnAB78Qa2xvCOF69KX3oLNtKGaS1SWYfZIYmUBhCmL7dopVJ7oBa+MJZ2TirQgY+YaioRk+w7iq15FEiZGJrBYoSgxUhlSB9pLvhYmGrbDrEt6Iy0CdAXgpbcaHj7w+jcO/PzdEz0LpBPwooQuCUoSDnCRZ9zQjaRgvH1ZwZoLkdwAJHKjerbwUOk3WgeTFAHclhEsiSIoIWFY0D0poyvkmbevZLMNRmaYVPwlsluTMubmeEp+akXNUZhS+NEUUtVj4dofLr10sRslU/x2/EzUuxIli3hcGZD3PFWrK+/8Smnv3eXYC1YVs1qbaYvSNdntf1jnGtS5BrHEjMPEElymgh3KZZsfZN8NxzETcpF43kVMbowqGKFIGi/0UqhunoRTUb1AtzagXgDinCNz4GsxaRLg05al3fzJrINVO92N+fbKopJjr33kDxDJT/mOSPGIoiwTwiIAvaNQ9rO27xyp+9HbvtYhmBNRRVL6iRAiQ611RsZUs5H0qbWanCr2qILTjjkR3js3eL9wKf2xNhMbuvvgUFIyaRNU6BhNbO0VSZbErH/nKhcoVl5gnSrGfU2Mp9DZ/PsTsdFEblPixN60zSRjPxxcDS2uwIeVYwXlF1NKO798ePAr5UPbB9MAFpfh0hQIk5kJWNnBfPbSD96qm1WwZ0FyAW6JLP29rFVDia+VmKJTA+rWGNJ+ivBELveyGFsEONk8v5f/NMvekOMKpBX3W3iP1dmwu+zCD/7kDS6TFu8yxkYWiItoEuB4Y+zRJ8/lOxpznV2FjoZdJcdPNEYmE4IVrXitX1Q7TppJq1BT7UM6wKoYSWrumy98/OMifsDMhAz8eBKm9fkFG8NEpdHqx1Uw6ZmwxT5qseMKs0YmWMj3Pv3bEM1vVs/UrcC0LCkzMZiNwdE36nOEi6nu7rsP+b9aig6J7ZBMQZ3Ll5BMSbFkZQcK2fOfNMzMkwo1YvdRnySVTKtSR9Tvtm0DFEgyTqUwAAOj8/DCm227imuyirtyhPGUYq9BCN5b3GMTBh484nvY1fbyXxY+vghVPXCiHd48EbH/rLPAWZHPNGaWdJlKuo1OXGXg/rLTp1vFeewSEaeNGLUMXX+shQkzQsnNNCvBN0pP7SztNTmHze5pInvUy6GVOrcCE63cNznDJseo3jlpdIbzeM+jzzaNiei0vfVwigywKIrXIjC6DI8++Xk2d0nv6kt1D93jQqNvW2DCslfsWkltppCV8VmZ7kKu8rxHnJIxD2mZ5JAQB/ffCya8vAmzaV6GJ3/Wfp/jan6JL2O/3+oeT2GGzOUT+U/Pmfb78oq9uxzt2d+vyN1f8cChK0Wuyzbmsqn4quFAZ/oTXTbXsO1IyODqyBXq7C+dJ/5VrKq/Pj1r/qqFiRpZClH9h95otZZcNDo96mIsycuxPTDRjgw6ZlLPjFqdngdK6wZmEnMOet/eimRSACaWwL8Me7nPc7hGE4f2jZYk0nZyZckArYZeNdZWo5JxcmnbUJoQ0vFjBnYMKyQZj5Vtf+S5ek8EDab5FYMpkQ6b9BnSc75t8mhlR4lQCcKEVcsyfHwBivbX5ZX05wgj1tLQPY6BL+3vMvBDea6Rna7hQntzoeNSEVdbKNRbHbU2rs3G+3YfnTdiEzNc/Dld6Dc5Lu9mPxzD+o6bhklli848MARJMg7+UDWbzVZYeE/S+qSdOdQyBOqQ3LpkQgSToRUyZoN6ZpTWG5od3p1c/Ue18wvEJ0I19U3DRE/xAsB5Lzxw5AKWUbM+XL4tuWobvRu2ZIBvCBM3Shc00nETuAy8c8js7LWxzcJv+0OY1aksgLKME2bM0k8kxZI5U9LwWGFge0aUJJpjAHJEkhYBrgzBfex568HGTM5jdGHTpszDAxn2y7nO2sd/3Ot+c/Dwbwf3v9xQwH66+9DFHYdastguKztoZLHHXDoX1HOeHK7hyd92Tco4tVbXZFIp2eJAhSmm4D1WNwbG4o8sQu/dJX7S7DCIXWWxsaxaEZXgSXtLUwN8tbW0Ism0MFH/J61fNTLD+Uzji39oH1tG4XTrMIkKBlJe/SSw63ADniZmCJcDxBqGbVFzYczdFjDlDWEq8ZjtXVlc85s10ijCFF3ANTDiCZjIBD6J0R2STMRawiQ6LKSISPElkme3i3nfXHzayDQYhdaCZ7qy3TUvHBtvm8eVlkYABmPQswS9MfivurlvHj27R7hQwLYYuW6sCncGsx29Xyu7WN2PEVy1XHiLAGnftgYmP0CO6xOLq/Nex/BKcw6e1pklvAOJyuaV/BMSJ1nVNWWFpDWSiS5CfA8/ncJNG9iRbEfTo+WfjpH0HprCe9OSSQaYmp2bVuD7P6nDhbnYPqtj2GpHU18rnLYkmTRfid4rtHnova4RFaaM4kGrva2Arz3RS50C0WWszUaYkg6kNTf29sijtXtJJgWIZKo/BrCb/5OVOZly8IzNXfnwD2trRrFEZziK9ZazgJlucwDBGOabD8zBa+8N7mU+t3GXjFy3xe7Jt7d+58iZeaKyaVMRLSJbH6+BaVCC//hxRbarzeLCnkE0+oFJSBieuwFMqq9yjYhSJRNRnVjmkIRpzOq4upf7fHARTVjqIL4VmKIijETg4acazM5uK+OzOUI5JSNZ9jGT2uFqdcGT+k22MkjlwwiTa4RIpgl9sT/b2f4Qd3pSRo/A6nwg6p9MXudN59f06qzFY4vPqV8tWY+BDtJZCYaikGf/k1WoNgsV+1+/MEjWfcNFutCpGI9i/1qSoJsMXYWm4b1Tgw+Wnykobc50tu4pa3rzsxCucIJqLhGHuf5RbkYYDS9jRR6Rl7/4zLe7tN3i9OpcvlS3L801RLM5tnLm1fes4Yk+XYGJm0lhZ4zcuMHemV9ae9aH6QzYxwPkW4Fpfhn6JqCQqc8UhtAJ5BzJKRnLKdk+mNyhewlMJmbM6BjKcTa7Xm6YFbHzk5qsTZ3V1Be8Ws1tdtq3CM/at6lxP/yDAstxmJGgogf2uj7JZM898NyFtkUUSBEMgKDfC5Qoprkk06TU3fkn5LJf1t53+GIW37Cz9OKbnw9eA7hG6se1olV9/5rBZt9KhSkCMCHBibblHY7zOdyg3jWQ5h5EmISQVjKpxFxnsAlMpAcBHyY207SBHctw9ljcTb+qEUeJtI7dQnKcBDC1DCcblaySWpsQNLEBMzNic4zZHLcA00pwmzrZaAuHe0pD97pxNofub8af5ah/89joDFmRPSl9EoGPJEzaM7/Zade+rn3/jcYo+Gj7foRpehldkS/+xZ938LMc+ye/q1kKxmGROsmxWT4KT7SvCEzoaiQ/soTv6ZmHAvYdm1BtsR//1fFBXMSSCLDtgmlKhp4Z2MtV53E9Jr4P3XUC1lKrjQyIrX3j0Mp6mAh5tKFFMIUfT2cnMdLFDRq5pid+2UZhitwCTHGy3PtrH4YLhVYKEzqpnRPYUe+m1dz1YcJAionx2Bw1nzbGE+U1SSRWSyYtEMl3JLnbSG5p33+jsSKTgBhWr8YBggtQOwgFTxz7WtmlvdwHnkUUVDgfo2VMURKsSsIkS6QGRgZJVBbiEBTh+f9uLjhUXXjk4i9OBMYB+/VEMbVk5Vg3O5rNvhU1m2he1SJgu4TvPnMpy95o5vrUwvxthQlN+3R2VM8GzYLXwFzNF05SmJa2AlPy7iKuVnLShhfgwIsNluLGTPcI5oyyWNGMTTOSSf5a6/u6S1NsCtM9bowBm7ghI9uZw5/rX0I9ItL6JBrS2uyso0P4htumH97gDwpAhKQEAHbp9CyB+7X+gpLqwuLT5a/WTpL84ARJNONSxLClmiOl6jsMogF80jKeW3rW4Kj41o/ODUpYmb5mNqcewMppV1/aaKBChkm+ZOGQo2/17na3WJleExswsQHqAlR52ky70VneRo84uVMlE1lAkXinuWET5zMy3Xncub5ZjJYuKlvIAU98q0S0C798+yg8WFZdUDpgEUK0gwcWMrOTpAHoiq9SRWqzL6CqNu0Aq8PcIwSmkIH3ZbBXH/lxs4cYJf8YmIjYkACGl+FyCP7jmcs5xbX5TOODpRf/8MXoPBYtESJoPxApjsa3vLJOkgoTuoIUqTEomks+twqNO8vPnOrDZXGILEtIJqQleZ5vCSZxRoF3L0QeOtSc7eg1MwEzEzBw6E/eTpgE2pIFO/gaWU8ee76qK74AmFt8fQMcuV+BCb8ySoiTrVDgrMgrHUTwSXuhe/jxe/hthilNCOmFQaPQfOidEb9M558b3ZtrX9OKJWqeqncvDWQl09/XflB926o/xEnBnV/C7lPZznN5rs6MA1fz+I684lN/Pj0xR3oMK7TDI5YwzJPu+XGUTORHhUmU5WVpyT8PNkdFpqsvhzvPvdY8MEezOChM5ABuHSY5BnhROyfgPrY619Fnc4Ss2Ep6W2HCRae9pIsGevONrD+HvfT2pwPzMqbWXAemROpF8hbBKxFTcBGm356LFAgNBnunRdDCNL6xZOKwvc7m21pNh/cQugZCaa4hg9Bj5S+9fm5pPGmorrrOGz9ZDxONqVFWVpGk4kO+o/ps1X5jZJXph4/+KZM9l8n3WoSAhRsucg1av3/yz2dmZtBGwmkAaVOgEL/BlIhtVKOkulPR5jZFZcU/B3sOt+o5j8HZtLPs/PN/7gzHEjwRy4me7ESJ8Krj2OSJetAkaw9bbfrm4Ov8mUJHl80ZQH/yHYQJC2OymcanfnNlijhurg8TNgZLwoQieB6UMADzls/EtZv4AZMLYUIvOwZGiM20UQuvRH37uuDJhoTp2DDJYQrgwhKuxh3C6cteIhKJIaLWwWlO4prTTGGSiP7BHlx0sJKmkoRNnfPTuGmy6ZTm65IdRwBqhyHL/mGmszWTw3YrVmeogBnaZW98+9PZKdI8DT+DHUNliC+BPB2BsQWYWITlRYz8oCyn27wCtf2QyzV89UB3mnvQUNqdX9b83Rfq2sfQ4YT3Lq2nw0jRskTytFbMPyq8Eo/ar5w4E2QHiPS1ZTjyn1eKHM02DJBvFaYNr8XqF3E2R5Yvx/p00o8fW1xYmc5C4XOfjGWZ14cJTcrEzSJiZvscYIjgoRfbdUIvtkXnfcnCPwz6aKtKtOObgknPhG2OESszpHf1WN04YwrM0OauEs6rknWVN4SJRn+x7jQRuUuqvKQeAZLft/l+EhcsAlDtgUd+cNlq7zLax0zMhNk5luUIFDnail+4jF5sBZZjUYQ2JmN3QmkhhjCNqTCRZbgS3TLePDaazTRnPzmVWjZyrzugY/qynXWPPvl57whishhZJM6quIQpwaT3WBJ9zYRvDe6rvoGo4ALi75yY2umstzGDVsa3Rcm0mpsNNQk1vLCjJKlPxxpiIxM0sb3Z7prqEJ6HrcIUjy7HJWUO4JxHtgnVelcfBjg5tYqURJU3Ekt6buRmYbI6QxanX+/usrrPl7xUNUtTZck0e8swEbc4bWaKE/Q4KBgVXg0WmVBjvwFyV69SgCu3Pqq5GOzg/prHd1hwSjyBrnkuYOPa8h2f1nhgUoLF2BK6D3DRNlmWYxLMipjuFSW521QsYXh4eAH2/6DRZu808ROGshmda1zv9NpKruw9ePyTiunZCPJEQ9e0nBwP4iZhWorCUhw6g7CLrbWxfWbWt0UD/EYwoTVCrfgkTIl+Bya2N6e87jdVi/PXdQ3QWQpdwwK/lqRgLtEfq0Zs/HnSY3/gTsCEa9BihqjH4OrIclX+6vjQ6BK5tMQvcLMwkSU3ZSrS6BqctKWnhBcuhjE07E9JOsSspF+vkETV1/ASHHzx0x18g7lkwMCR1oa8z8q3FbqqXa/XTRAtRkt1sWEq9qfALCtSC4AkLZNkoxmAP52afbisKZfx6B2hlJJQunPEwntz7U2PsNUfnbq2hD0t6KK5ZJ1TCvdNwjS/LC3GwTsDu7gqK9tu5nBRDZWDLTotNwJrFUxanoysJ6e8+ehfh28GJhldcxNReOo3V7IETIjTC4Mkw4HmfW+bZMIlA/hghrNPxzVnC6fOdMeoPQFEwanRg1XCfdXVT55+FEuyHMdGuDEFL+qsjMHXCbKo6Ogy5jeCuEBgIpnM1MGYcK2viCkJMFH40/qph0qrc+1NWXx3RnGryd6e7+7aU962kznxUUNsgsTXItgVBK5FIugsIF6xa8u4UMQsoD/p6ig85KqyPn7JWtJj40IZ9sBXvteZyfdmHqzZ8f0PWvqwyoDcsqIiYb9VkRxPwsWPFr72G68Zk7OCpRNKNCYvitgFn/lln8lxGTNkGLxAGufLhirsOi9qP7sypl5yPRPGHgfOpkd+UBdYuoGao0UW5NBFOR5F8b3vuTPYCNXVh4tiYbrMNsOE6T58IM3ZXfjsQC7/afsEhi/W6adVOdGrWEoqBoV0wY2SOMasDIFl+KRu8sk3L7z0bnulTwoQXwO2+RIjEI8pYuLiJVlaBZNEOnH96fTUQ2VnMvd/tMNV+WBZ/R6+rsBxoYit3sV9/n5DdBKwzcH/XyWCh0pW+4wQtTpBamlap+AbR87s4Buy7e1WO/YatDr8hgPd2a6re45cdPyoep4o4MXIPHZWJQezZZiS95eM3aXikrIk46obPzk2YXLWWrk+vXPojsKkZ/0moauotKZ7/HowYVkP3fC2EGUpBv4xeIj7JItvIDCR5UTvAEwZrmAG25v/VPfXn68aJU4BDUy0qPXGMElYGCTOkvjXKMCvjg89fPjzfOfxHe4zO8o+/Pbzf+2fhrkIIqfIsShJBcYOYMkfCigtXluGyDzIYQm8ZMGCoAKtw/B5vfL4Dy4VcWctJaez+S+OvtvbH4HxeZiaRq8A7TYRjINPgj+cj95/6Lxpf7XZ3mIsuWq2X7E6GrMd3UWl3VbunNX+pzO90RHSuDYmLdIg8c1IpgRMCmlVJpKbZBLgw04ws+ctbLe+xHvzMK1III1IW/NiIu1Jzw5bXIO5/PnjV5Y3NcDVmXOSJ/R9VzTL93FnbPxVskKtth58m9WcmetLf6LS9et2Wv+QCFRgGEvtQ4o9ptSAGPUjU+ZoMCMG0hLIs6TZQwjgofITu8pqjcV1GfY6A1dR6ProJ388P59ovSUvEc+kqGmKqko74r/BOpJ5kCcVzIybikmzC2jnehfhh+/6c/gz2e4LuaVnC5yf/PD1ntM1SnVDrNkHJ9tiL3/Q/8izZ3eWVhj3ndpzpGXH4csPPnfl+z9rOfjLzm8cvbLXfe6+Jz/++fGewShMgTwTn5UgkXGAMNGoEVaTkm1TNbcGJsx+uQbQNAV5zGkb03nnYKKmFZolrHfXobaff+DdEkwSyEsQG4nDf340kvH4WVwqPrl+GUnSTUK6LbM5NmhlAjZ7ZyF76Q9nFxaJsZC0mrFFDp2XReRlatj2TsGfv/AfvzwdiKCWoSnJC8SjERFRgE1G4K9n4jsd1dlMq5Hrx9uA6clkzh9+rXYRcB0UUYYlbMIhiiuCKaHmaIiN3FdKDBvIxyQpgsoxirO3axImVf7kXV+2/YTVVW8VGouc9Xvt5x+0V+51VBax53O5S7sOd9ocNTn2zx594fQnPdF+Bfwk8SgMECY5mdPkmGOoZtG1QDL+sKsA6TOuVpBqY8GrDCbqRVMXZ5dlhGkBcF2vx546V+hoszhw2qUKGJpUrT5VbfPVRrf2/XhxtX9ds/o5ugmcQ1nc1cdfubAVmDCPbgEknwT7ftqU6WrVc15if9Ek3QRJmOK5TTBlMcFse3vm459V9aJZqihYuoqBXkz6jpIe7Tj1mgb4+PL810s/Ldj/0QPsp8LPK/uWsPZ+kmwzgKWJU0vwxUXY/cSJfEejhenF5Wn54ZRi787yviOvXcGKOxLhX4bYMraIQRuW/iTUnDZkK4uKHJGlJTSzYoocx6S2MQm8S+D+TZfZ3YCOMa4nh+kqdLTlOzuymD4r15fFd+48dOW5v3p7Y+CJ4rENi/MzgM0RaQiCRGJkSlISJknbDIgmlG5mgKsw4XxCVihMywrMRuCHrzfttDdnMXcQplQer36WazzjYON9z1ZcDyYacaL67poCfYuww30qt7z7jsMkBLMdLTucn/fNUYYSMMXQGlkWsVAaPXotI3A/d+y+0iv5zrZce9Nu14UHDh8/1gm9IvRLKAAqPPCTd6Z2MtVFQouFxb4zqS5POu/N5EN59itvfjQ0S3KkFDlCltSJ3RAmESJRZSmixCIy1tEuEUtrDOBCCKyllXp3l4H3mVmflUOMrOygje0z7a9+6dhcfxyCpHs9WcUGnQXYDhFXgiKeJLRNsXkaWSID/WHXh0m1ZcmA2lcihYnceApabBF47/RUYUltNjekndBtLplWpJFWbtFZ23rJROUTgSloE8IZBxvzys5sFaaxZWifgkL+tJlpJSEUtev0NksmHRs0sz5byeX9L9b6I9RxjDCRZsvLBCaMUcwAOF76ZAd/NodtszI+o30wW+jJ4etzuZP6fX/4xg+O7zn0SS571mK/aHU0GhwtGVx3uoAw6XivzTn0QFn3Gx+HZsjVk2FBViKiklAx6yUTZgGgoR6LgjhPJOIE4PT7mojSZUJChZVVelLv7tALPoMQxHWh+UEzO5TF9Owpv9g8C93z8Gn9tQ9qwp2jiYh1YrKfWHhEuWWYiA+BmlgomUDGCQrCFIMLnVBQUpnHe4zJtVkoSavtcXRFaulZM74hTPj+koFMoTun/LpqjnZ5ps1iZiQ4Vr9YxFcZHCpMKxglvA6bqbnrBXpX6WNMa+eGjaynqLTxuT9hCh9ZzRNhIrfxMmmajSdrGuA+5u1sZ2Vu2aBRGDYIQaPgNwv9Vr4jk7mcyZy3Oi6Y7U1mR5vN1ZPBdOQ+HdDxnq8W99x7cCBXCOWVNPH/2TS8iIwuifMYwpPFpIrD36oBTv7zPKBXZHkRICxC1zz86B3/I+VVjzqqj/6kPbwI3ijwvwuYXc06tsvoHvrSgbZUJ5bU5TIdL386M6gA/5L3vv11XxMu72UrfvTH0MAMrviOTlS6eBsKKKoGNNNWlFWJ2fQNB2SF04Qfn3RUxuyFsTg84K7Kc3WaGG+y5ylaJhSXNQypnKlvoG/bFCaOrE7L4WKCacygnu20lTZcRzLJceIbxpIoBeZF+Ol/9WeXnLO5epKS6Y7BxPUXuuvePjc8Rmo8Fkm7D7SllWX0WUuKKMOUDEd+c6mAv2DmezJcwzpXOEMYNfJhm2vY6OgyOZqy+MYsx6Vcrr6o/IpNqDey9Ua21er25h8e1e3v2eHqyy8+XtUPYVwwlCw9qLG+18KkYAguBtIMwOme2P2HPrU4KnMc7Tv2dfyHvfm3H0yERHj9nGJmKnLKOoxct/nQoJ7vz3i8tdDZH/i+YQAAIABJREFUWD8Nr5+c32tvLdzv2eEezmG6cp+48BB/cmAG7xOy1hZ1s98uTEg/Mc0pTAsAI3Gwv9qa5241MZ5kU94ETGpgRJVDtwFTOJ31ZnDdJtfVrcEkw+Q8HHjqjK2kOtPVd8dhcnkK3Ocv+hWyLgVWXSaWw8V13kgTXRGD8m0TsNtdYbQ3Glx+nWvUwI+buVGjfTDH1Z9f1pzPn/1a6ceH3rj0w3e72Dfq9r3aWFRerT9w3uBozRQGCw7781yN337hYvsiDCyR3C4xmlyoCSVTMppKrw9GX2LE6Hmw9N38shqDqyuzbMRa0pf12KXvl1dd9kLlENz35JkC/kI222BwNqXvr9N/94zzVW97BL525GxWSW2mo9PE9tuEgcwDdXuYkw0B1NSkXa1WLN2iZCJCKVHmIpNG74sAwTi8enw223XZxPZjlSxpHY5r/yWXt1NJWlONvfp1FBkb2Ewrkims4/xpbE8G335jmKg7p2cM9pR8UsA36+3dpN3dWrF0vdnczak5v8Xdky+c9sZhEuQ59D1id3/UCjEJYnHS/gjz88cAXnh/aM/TLWZXr0EImtnxTCZc5BosZOrZ1/s/Jit9j8YhJEFAQbOmcxHerpS+/UJTfnmDhb2SzbfnsBf3/+xC2wIMk2V45pLNekjhDs5h8WYnuUqKhPPKawC7nR/k8PUpzq5UPmjmh3O5zoddF3/92WJ3BDu4vfh+6EH3iZ3cyQcPVR78yeUaP/y5FrLtJ+57btDI9aY6e42ufquj0fbER+d6olPEEJRWFBwtoUt6tG9Gza2DCatkgzH4sAXy+WoL03unYcpg+zPY3uvAhGczRuJNMwDHOqGw9EIWh002iFpdRauW3Nsc6zlvltD62MtXSDE4drnDFlirezVIpEJoCqB+HLIc7xjYGot7wOYIZR/o21Fc+fsv5sfiGFCj3beoQ5L24plREEH+9fN7yyrM+xtszu5c/soDT9c99efh108vvHxs/PdVi3+sCA8uo8sKcwAQYZxw0aD3HID9hdq9ria9oz3zcNjMD1uZ3jzm0k7mRM0wOrv7FmAogsxNKDAcw3KUbxypzWEwvR+zEw8NZ5T2pxdf3Ok+0bVIS1NkWYlopveb2kkaG27NMOl2ogl66DPBGy5CzE1fFHL2vY/d6Em9NS251viW0H7SKjg6vtkrSNKQMPHy+jChfbpInMivnpuzlTbYeJ+ZGVkj9272f1///RiF5uuP/pc3RKqxkCM5ARNNGcCZD7mnrwF0L8Husvds7uodT/dnFXcU7q/7/ReL4SU8bAVQhNEwvvZxAcAfhQMvndvlas5jB3VPXN1xZDDLUZ/N1OYdaskrq9M//s43n/7bGPniZFljdLXTbnFzAB/URIpKKg3FTTqmT8d7jVy/lW3N4c5/94XaT5rBF4FQHHu2zgFUdMf3/7gin7loc/bqGU+GK/hVh0fvGrAJDYf+MBgirZtwkTsFS5Ml7AypmttUJKpPcbCGIM1TDUzUtamBKRSF7zx1HL21qpojOktrM90mTKiR2CDd/1Zhsr/Rmulusrn8Fn7szsLE9eex1e/WSSOkbSPawri6MMkZoAnVxLMoE++APw67XX8rerIho6Rmd2ndoV91j4iYBYtdb2OYMqvFiI6XyL0xDPDI03WWffX5rsG9T05YizuNB9qtbq+11JPDtj1YfrGyHyeMZP0nmTomIhCbB/BG4IGyL4z2hnvtvamCN9Xl0fPdFq69qKw1u7j60efbn/zd+JNvB77/o4bdpScLhJostsvs8FiEgEkIpRYHzKyvyHXl/fpExVxiGiejvzsJBSVp7aOGnjXD5OfobxSiKJloeGA0Ds//7moO00AasNDmIliolPRib4NkUvsRGJ3h68GELcmSkumBpyszXa1Z7sCdhsnE9hY6T1/y4cwWJ+gygUlKVMgqqHjxVkaYFOiagp3M8Uy2Nsddv1s41jSKKkYkJG0mmaiPah7gr7VQ4KjJdnQb9vXtKp0sKpu2lE0ZhTGbc8i67/yR37SMkl4AJLFEIf0kl+cAxgEO/PSCmWlIZ3G99hQXZtdjTrejz1TSvfepsRymp6C0z8ZfNTP1RqbZ7PBa2NFMPmTmwpnCTA4fLGIuVfZiXgpmqlAZm7DO1gKUxOR6cmnFM05Tb9AKx/ysJQxawKQIv/0cC0hMDOaiGDmsn0xnJxNtLUiL8NuUTKRJAebZGp2jN4BpiVim53thp7vK5urJ5ANmdvzmJRP1bWjNrPWvJP5qYTsfcp+cJBlIy1GStiaqJGH6WFxajEmLS8Rr8Naxpd1so4VpMtvPvvxB7wSZH4mKSPvdbvgYpbQBrt75necbCphOw2OeAnbafHAk3TmRUhIyFw/t4juYn9aHMGaHG3FIiEuwNEtgcv7ysoW9YhCG01xDqS5cclPHh6zu8fTioXv2ecxc2Mj6Ux1dKfbWDGePmRvNZKcs7KiZGUnbHy4sHbM8dqbWB1MS4LejtpgGJjrBj8bkeNJQ1CJFxwnRlEzcwnsu6Rcj4QqEaRmURXK/1fRGjfs/MfM9eueQRZhOZ+iCreN0BQs1zW01Uiuzq+vbJPhXdjQVGcUFom8M07wC71VM7nTV2oQBKxMwOnH16hv/j1UzuPXorH8lsU8r286+VDsrknTvGJnrYFkjmuE0C5bmsl5TMCj2IFt7f6k3/Ykr+WUXPmqcGY/g7a5IiUWSNoSJLviBCy8r8PwfvbnFjXnOEfPjwSzHZKZrOss1nm332B6rKPvFxeElmIrCTFRawvpJaRGWZgCCMjh/0Wrjr+pZvx5XsR7R8SGja8RcNoI5fYzXKPgz2N40pt3It1tLPVZh3MJM4zLczlEDO6G39xfyDT8/NjoSg2UUtyDNY2oezQzAKohkwicVWxsGeDeAibxESEosKEhmTsoSQM8U7Co/ZRbajKzfwEzp2PlUZi6FQ+FELiIa4NpeSISqm4AplRu9hx9P4Sb1zsnrwSTTBSQkeOHXV3bwDTZm0OIImpxrHQ9bACuJDi1QQc7wFc1xJ/q/6vgRG9P62nu+RfQsJbUAFhNhd68lEOeIQBpZBs88lPwElyfMYgbMfE8WU1nvRzMZbW9iNm9GEk2DjEbRHvrjmbn84vo8JmB+3J/DjBS6g7lcZ4G99n7u85MtsxGAmQU8ioiEYbhFkGYUaB2BrO+fyBa6rO5hs3PM7JwwMyE940l3tOm5lpTiGgNbY3Oft7oqLXyVTWi0cQGzc8pYMqWzj2W4x1KcXbnlzY8crRihBpmEniYpjmYhtbclCYsSoqQFWLJsZkX9qWyRs0MeVPmECi5BEg1dxEhLlimAfT+7bBIaTdyQrmQi1bmUwixh8wkNTKvF0kr/nS1c2XAKP/pV1/hdwo1hUhYVmJZh/zNnC51XrY7h24JJW+q0MiNNNDXDugMuqBOGsrlLf6uciNIeNnQehXVv2P8aa+kBumfhN8fHvnHkzNePtuS7e8zcQFrx1V1H6rEVGOanIE8YhSett9c/Upgii7ia21/Pz+xiLpse6yjiAlkHe/KcjTvY2id/N17Rh63G5wDm4+jbWpbRrTWr4IT/hd8P72QbdfsbjU6PzRHKcQzlMB25XH0Of4p9u/9XVbH32+H4ALzTrLxZtfDKicjO8lYb02m292Q4e3TuHmNZl95RX+iu5F4/O7CIDgiRZDcsylhePa/A+ea5UxfDLX0R8j3ofYErm1MFp8UrwdMGMFFHCsIpQXwW4NDvOixcnZ7xpJaMpjJzqcxcOjuZbOB8u66BFD78Zffol93jqdz11JwsQnQeoG8a7mfO5joGrCXjVvvorUsmUluXzo6ns6N4K3BkvT0mrHeiusV+P8Kw3t1lY75o8oqqtMcTQ6pjIySx5GTfTL79vWxHtU1oNAttJqHLJHSlOxtzXacbx9GxRNvu0Lzv9STRkkh6GWYB/lgd2Mmczz3YkV/Sme9o2P/TnsYZONYCvz8rf9QQGVhAVRhYxFnIggz90/Dy+8P3Hao0FVdZmV6rw1vE+/IdDd99ofatirEAIH8Y/ZWwUc6Egk8DAMMAXwyC/a2OTP4zs1BhZC+ZiptzmIY9h8/tLv3bO1ekvhhabyc74Ogfw488eWkHc2o3/8U3Dh+r8+F+lpVlUqqANRE0fWMD4ZQUU6ozTmNaYd7f+5elorJL6fauNDaUwo6ks+MmBzZhJuYKVRprHm/CjEnhw18qDf/fsvBXS4evo+bkCCzMApzpgN1MbXbJsLV4+s7AhBISW5W7fQZ3833PnPHNJOYvePqIT0AhXsrhOOxwvr6rrBbjgy7sFa5z9xhcXRnsVRtXccaDsgS7OtNkDhIAWc8TlUwLIs78n3u3MbvkXAHTWVhS9+1nmpsX4Y2K5Z3OU3ucZx8qP/HQoU9+/Lfgh5fhfAd8UBV9pLxqh3CxoLTx/md95v3te8u8WfvO/bUWF5EejuMsclFWYnGQohCPxyNSfF7G+f9gBIYAemT4oDP2tWeO7zl0fqfQsZPv21HakiNctDjOWB2ncuxnC/ja/NK23PJug7Mp292898gV5tVa0vEyFpMw/ZIa5lRSU56SCK38Vk31lZfIfLx+GHLtJw1Mm949ksIFdGzYasdNx26WMnBzMH25NPx/y4NfKr9epqW8qCxfA/jVsZHdfJPNPmyxT1q2STKhRqO5mmwYSXKO60r8FveA2V2//+cNc+RkqCRRnpYBOqfgwbIPzQdq0os7da7BNPegzt2nd/Wll/QVuNtePR4eJZ7AZdL2niYHbQhTLBabjMpdcfjGyydNTI2lpH6X/eSbJ5da4/DNF+vuO3JV/71K4xMVuVy97vuV+UzjTrZxt6t1Z/mAjRmwOoaLhNAeruchofZcB4rtOUzkVXAVLyzEJfPJ6LISX4zLsUUZs2VG4uh2HwW4NAQlL54vOlCT88TVnW6vobil6DmfUWg2OZrMTKuO7Uhl222HvWnFVy3FzTtKTnSFsPV4NJrwkUDSJCL2VcKQ0nKzapxUf1j3twQPH67IEtp13LAGJlRw1Hu55nErppL6nlQ+fJcr/OXS4JfLNveAk27A8SmAw2/07OTarY5hoxPFo/GWDXCNmkMDPLH8VBh78TjH04r7baXdVvf5sj+0zW8C03AEHnR/lOuoy+T7DfygzuUjmUNDma7JPKH/0Rcv9ZJURlwdRoEIWU9iPUwxBabnFmcAzoQg89AXmYevmpy133uuqm8ZflcHBaWV+idqs5i+TL43ZX+LkfVaXcG0Az1pxb3W0pDVFc7hxq2Pt+11VDf4YCwGc4SfKEnnhWic+BIUiCyig1NcwtXiZJiJwWQMHUuTEnSG4dv8ufudrQXMYK47dHdJVwrbl+YgK++W+jLKfGlsT6ZrwHKgY0fxub982r4Yh8gydX/j9C6ODkn0lBB3+Sp41j5JwhQH7Nhe/lprHteSVtyfxqJksjiCVgeGxdZglPSM34RkSuXD9wjhu1zBu9zXhWlOwZz5r5fX5Dq7zEwAC8AZbAx9S66BMLGW0GOGAzKhI4eOr+uZ0YySHiPTkOU++4cL89SFvUYyYQ6TDMIr5/IOnCzgOnIET8HhiRxh8t7veczOsTz3UFHZxTcqZwMkCRPX5Ihq9B25HFEJlqLokFkCjP5yv+/LPNKQebg7t7yRebXWJ8KPPpzKZy8VuXz6gwMmzqfnsYcfdtHgw1hmL3j1fL+Nac/Zf/L9C3N0UZQYxERYkhWSRI7TMJJXHItADF/BNF+Z+CmIulEAfQ1XffANvub+Um9e6Wia0/f/Heijd3mKgP8ine/OLe/LczQX7Tv2ac0gOV7KyVqYEvRQaNaitPJcArgWhXfOzu7mm7JYP718Fucw1kyzWOu90XYTMGGvSw4X6LnHtbnNJBGXV61PeaC0zuboJ4WhCfeDKuK2PCCzTTS9V2DCPkyu4D1COJVDL6iR6bZwdTnC8c/JWkFakmhWP1bRS3Dq8tiDjvf28pVFXF2Os7nA2V/A+GzMoE3os7BXdpZV1o1jhPX/tfce3m1dV77wv/Ktt77vm8gSC4hOgr2o2Uk8nkmZOI7EAuA2NFKS7bGTOE6cOHHieBIncew4sSMnbnJVo8QiFlGsYi8gAKIQBHsv6Dhv7XPuvbgkQYmSJdnz5mmddXUBolyc+zt777PLb6+E0VYQimqJ/QTBGGxLJRAkZk2H0GuXVnOYJjDejX0ZJ2u537Y5Quj0n0dLmLrDtvFc1gMdz0y+Q+a5Q6aFNA7IazNNDqWpu9jaRP2qdTaO5kPxMArG0WocrSbim3FcfwcJt2FIu41Hw/FoELfjhX5xhIyTEBKtIvTWlQ1IqGUcWkjDmpUzczjEAV8hZ3vl5VePma/9R/U51wLaiMZjUeKRBIuI7PmJmtsnmOIIrW6g60PoqKG1kIUG0dAFhXLfQzBB+T87lWaa3NMAB7rBBHqrfrKMbQcaCYEaEQP5zpDLv2WbmgP66YPmyQNmcFTImEmNaTSbbSowfdS3BpJDBFNyTwxkfrHNODrX4OJ+8Tn1yyu2P9ykf9n7sLVRS19Lq2zJtowUVfd+/dTFFieaW0WRCNrC7P8ETwihlQ1wWM5toLevbhZUXtEahjSUO88ykc91GH7dYY+izwaiRZV/KeOaj5xyqtlxOedL55bSuRU5Pa2i3Sp2OIe7Vmw+2z4DFHI4MycYRetRBCm/kVgsFI+F4okQTgMIYhpdQcnGcQNLIDzYwFbd6CZ6/IfNJXRPsWVSZ54lNxhqhlh7gbXriOXST/8+5FwFt/ZWbDMY3IToEUZUCgP8dpIJJcBxNbWE/t3SlW90qjCY4OfQUKmWSizdmZ9JDKekc3vH5sIINsYv/HO0iOnKZiYVsKWEBXpX9epEMgHtDnENEB5gKZiyOXse01rMvDdDkgWETZxkQ8z7htcSkGY5jU3aQAJNhNBvzy8UMBey6a5cdrDY3FxqfP/v56dm19FCBKhq+OSTODSntweQ5YULJYaLmqrutCfGdKbFXNb38BlnMfV56xSaiKLeefSjvzrKmNo8rlXNDWVwMxnsktwY0FBuLabc+8nZrgB2DkFBQCKMk8dBkfEwSiSCiQR4zLG6C/G+LqDOwD0IgQ5/GYUXEfprw/LDlqYCelhVBR2bVbRDQ4/msO1VvxnoW4Vfh1l4EmFc/AQOcgwa0c+UVGO3BRN+6cIWMv5kIPtkr4qCcC/Efdl7AyYc6J2W0yCciGQSN5XJkyCOQxWb3s3leqERpXFBaVzEqTAEzncknPYCk/egeTKNA1NMR00cprrOvNI/TRgHsVMAUgYg0BADJzEUhIVxFBMmegvn60DGUhwqMc7VzRee/LTIMpBnHcvl+oupa4cNF556beK3n67/tRn9tRn9vjZh/b23sOJKdnkjtOhgnQpmRmNa1tCzhaz7KNPDvNA5nYCdl3MVdQbQ8+/Z80znFeYhdfWcnJlU0W41NZyrv3yhb20Dh8IgLTMWxYMnasa19EBcgQfO4YO/4No33JkjnoCG5mHo2IHGltHD7McFTK+8aqSwxqOobDta0/nMWz6/QCkuqTsVctIlHEAEWzuPGDfkFopoI2x5C3H03F9cuZWtoN3oKciVhaovN78N4vYSUXtKKZIbzuf+C5b0nmDaRKhvDeWZP8k29SuNvhz9ika/DGAybWO835/ZlBpMaSYvsOizAKY82l/wgxvP/9k1hRnviV6AtDg+7QRbC3gjg2uEoAaD3DYo7N+MB2PI9tLNElMX5DtTHrVhSKvvyja2FZjbi6zdBabug9+pz3y8vdQ8mfmDYUI0I+NmiO2voyePUI5H6frr9o1FSAlHCwlwJL7ZulZU3Zpe2a3mvAqDU0Pbj1qaB2YIbxJm/Y5BBSepV4fLhJoEaPktXBg0LCd8SygB/OCwHiB7CQoiJtbRiR/V5jOdSuNI6emJAu7Gt56sm8Z5NaRnFcknwGUUQhKxAKadGCLCSRLrlWY/xbCkX0ToXC/Kp1pAuzGQaHvPwSSn95ZMmwh9MoDyzZc05sHMqokc/YrWsCTjgB3wzs0mEUyQTEPsNSLkyIYOCvnoyW9WO/7r3JYPt1oP4t60QmYc1nkxmC2wpUDLbANTPIZWQqjNjXKr6pTGoSyjU2MczWGHdNyg2nhTWdWXbRgtMfmL2EDW98ZKLAtaTBtKCLIzGY+K8hYYvV+nb/zijYaVGIi6+U1I0PaG0K8/nM83XMs3T8j1jmzW8Z0f9S9gHQcBnjiIpSSYgCRAABNmaiKdn/cCkz+Ennl9OJ/p1DLjeSZHmenG2fq1+TDPKCz0CYdgCzAgCOhISh0RQNKTHZIJ/ymCrbQphF6/hvLYTmgGBGDyQksg4p0RWoTfkf20WzKlABNuEwvTsonQn68sF5ha1NxIevlEjmHpnoOJXD0p5FMbPNkne4wvjnpDfKa9BE94M4ZNJjKbUjCF8UwvBZEvgsqY2myqV0nZ1ZRdQ9u17Fj6yR5lRX+ZbaKIHi42DhwzDRYCaURHDndTYR6ScfYsxgE1CHr3MeONF19r3MRtnMO4xnIpilpHUVnl53ncmFzv0JldJ3/hWMSuh1uCKUxov7aDKbJDMs3E0G8+msmlbmSzLrVhpJhqbneglS3cIRFqrqDPM/6ZO8EEgJECSHqOHZnEBUW2wJAph8NQo1vosWfbSbIDqScjDDZJPKX2EdyBmksBplgM6gIj0VAQoYqftBRxN9WsE5JyjMtq45KcDdxFLw5eFRKZlJRMvL+KJNYoaa+qqq+UaXm7CcgON7EEWgyuQoU/YBvKkYCzCxfhS4940mOrcRAkX7ecz6VuqKlRJeVQUi610VVkmThaM1xEXS3/eedbTZGuadTqR+92b5lf7yuqaVDT7TrWrqPHNd/v+t7pLsc0CAbx30Ycjc2gkpPvaSpvyvUOWcXAyV86SZ+QOwMT5FHiELREzc0l0DutiVzqhpZxFlg8xVRz8zAQWUI76V1gwkIZrouXUARASfuW5DOR3CiSUQ4QjMbQ1hZa3gKnmvHXfcef7lOxg3gHB4EUqAoRCSN4Khs+6Lsf0+UOJFM4EpxeRV9nLuZTQxrWrWHnsqlFNbUAYIJeHHdkfQsvTgEmkkIKzJuH9I7iJ6dKrT3fsF5qGgPDBbNQxLdgYwtx3yiYsqnBFIEtEgTIHrN9VGBs0lCDSsadZfAUm6d1J7vKqMvneiCgMU+KcWPQxn5sC/3qE/+x6tpi5loJe/0btrZzrWiDdJKPghEWTsBO0BtCR+hPso39MoNDQY2wf5hexLZ/OCGqOeDmwv3DRDW3SzLtAabfn18qYLu0zHhWRV8h3Xy2fg12cDh/Zoea2zeYoHgiDtuUGEwXtr2DCL38/vRha7Oa6lRZnCCK2PsPJpLQDkI0EYtEQ33jGw8bawsoRzbn17BzGnpeQ88TMOGMsFsTMgsAuiXsIAuCdzd45Ra/nHXkmvtyKy8wzzVMbQKYgiCigltoM5yIR1OJJbLljqDQEkpMRtC/V79bRF3NNvbLGW9GpSu/fKysvOmfzWEv0JagtWhoKwTKciuCpjcg0HthcMvyu6vPvNnR6EL+EBZJYQiEbG1AE+I5hK75UYm1Xk0DSbWSHv3OT0cXUoIpBts20GsJoA8LkwWAjXGedoLwam6XTM/+ZaTM1p/NOmTlnflsG/ubAQeubFnDuolYSyQumRpMUgUHAhXSlRE4UYNxBH7SSASFQ6hjIPLtM9fkJxvzahzp1Cixd/mEuHskmUQphXdz2DOI0194ORqOoIb2pWNUSy7t1jBTanZaQ8+qMTkzbngKvSjuUj5J4EVSaggh8NcMrkN6e/6pCa2x5Qh18bnXBmeikL+2iaIhtBlCYcwVCWt8x4iC2yCyhlAgjL5rffuw4UIB1ak0jKkNY0VP3NA/1eEPgh8Bq68N3D4ARUPwM0MCa4A/Dpnd8xhMsfV4eA2mYxn7sV48v5RrbpEzw7ozs1nUmOLkRVKxHo7GBL8ASCbQw4QtgDiWMJ7Izi4JJvAShEktCnRgiiLTSz2Hq4e0zHiOaUzH3jxqu/FuB3iY5viieFhLfF28oHxvZYCDDoTVx4MJoeUgcgRQ+elPdeW1OeaRdOOQ2HvufoIJyqMhfAj771gsnkCLy+iXfxgqNHaqgeLer2L8ajpA2snJuLtVcxIYCesDBBgBUwbjy2A8mYxDzgwC0ZHp6uvnV6bWYLltRYPr8SDY43jHRA4iL0AMxYLxLfCKbaFfvtH5LfP54vI6zRPXjzD9D1ecv9oFSFoD/UjaDpIbBGCK4bmHKg7iY4whyCAJx8LhKHBRItTiR4etDXm2gXTz6EGLK5O157LNnw0GVxGKhnAxFaaRxIVKwB4Lk5iA2x8GMxpyuHknEzg4cA0ExlMiHtyKosAmOqa/UGQeUtEuFe3KYcbyqO5Squ7X7wWG5tEs9lBAiz0sCLG6gF9MBBVv1Uklk2Do4awnyLJZR8i+hvS/uK4zNKrp/izGkcm4YIaFHNddqbrJLLk7FRPbJZMETKFINBxFa1uIerYtlwJ9QcqKMeMzEM3eOzBN8slZmKo8g/EQPGWwDkWNXc3eOErVXeuHLMcgLoQU08R2gInwAmyGYxGEFoOodRi9+Jbr2zV1xw3n3rm8ML0OubxbACaycEnZEqxwLImBQTISD0fiYRAu0Vg4BBbr1Bb6oD38r081aI1NmcabBy2OA1aoQtGy7T88OzgFGUux6NoSwiVKmFUXckUASbxkQlGB4U6QTIT9jdzzxEYEfVgfPlzVmMOMkCRBFe3OMdoLjN3fsLV9u/rCL97uG14CO8+/BfGaOwET/M4tbCA+987Akae71OZRjCQPnmEAE0nSvW9gwmoOO5fB8FwPIvc8+oaxFkjsAEwifTjfZIegWzjuyzzaBXZJsBr7OchPhSPrSjfb04w9qvLO40yDewMXr0Uj0cg6727GaCKSCRdCJXDREOz1Vtaj0BAyCPbQHELuVWC9Ie5ynFAm9IHB2yIRTIJYTbqxAAAgAElEQVSnEUTLGkLnO6Innr2ep28qMA9qzINK63ia2X3QDCX6Grb/qOVS3xx8JgRSyEYeO734om5oN4dFFA8mvvcrf53hWHQrEorB2w0/ulFId6cZxzIs0zLzFJS3s5M6xpVr6M2vajpuqj1KvVk3CiUMG9gnQkApkUzSvZx4DriLIjQbRGeb1sqstWprl9w2ngliyUPGjnTvlA933az93mJsM4HUBwsyAj8aHIB1fajM2KClgVZAGJj5APdLFWBEALHfb9p+iXuDifEcYpyZjENr8Wqr2k79fsC3QXbsoCmIgRIHzzJe68BLGIc/gyszGtzcWN9aWwmubaHESiK6lkis4loAXGQALxEHnn7QOmKf1i0sBn79j97j3MUi7mbp6VmVKZDFODLocayI4YJVjP1YTe+P/wYOAqIlCVKxXuN1kLDllLK/Ydd1DMU24GavBNGVHlRYebHAOv4v+vH0mllZ9ZTcNqWyTGdbZvPMvlx2tNjcc8R8sea350HTYTt2n2CKYQV3dSBSqj9fempUYRk9aLJnsK4HCCZs3wm0UZDJ9duPlou5Tg1tlzPeLNojZ7yETJ10/ZLCeTtE9g8sCZh2usumMmgIdGRyXhU7fMTS8btz84ukWAWY7QFPEEXni4OwKIhgsmNoXQLPg20BdjrfMyAExQh8fTeJnmKCCJJflsTTZgJ1etAx9r0807VDVZ0yy6TMBFn3CiYAA3PJq1iP4sTNQn1t+ySawvlueL+JFjfXttlzAvVbjO9KDWCK4e4VCyvIu4ae+M8WqLJl7bLqyazTM4rT/iwbECzLjD4INpi9OotdW3Xh+8+8BSZdDG1s4TeDahZcTfD/tkEerCSQO4j+7dTnJVy/XO84RLnkNqgFkt6yPc75/KI7T1ZL3nSymwOtjGu2olu4p4XhN8MFtmElmMM8mMTmcWA2SVrO33swMdOZ9DLUCnJTctaR/nh7Gd3wQesSYUollmwSTEJ4BcBC6GhAn+HYcCKCc9Og5QshlcdSBOL2UBSMY35STbeZQA0jqJj+WMFdSzMPHrJNplmgzEHDTGuFxm0K1ldgnc6jeouq/tE9A0b6JrbiMTphf4f5VqOYRzCEqQT5UnbIGYijzRjkrhie78gur882DadTo1+jhg9xI5ozruzTruxqv9bqz7b4s60+JTusqDr/zF+aFxJQIROKRInXW4TPDiRhxYIWo1DWZ/ndjUdOt6v0w1rTvMa0mG4A21R6y/Y4v6dgwvXK0SCurCg2N+iqJ0g3CyKZHgyY8O+cllHLMOhZOeMtrPbnc12P/ueVnjmwBoDoISmZQNlA3ED0FhA+0wSwQaBEKBGHXEcgiyT1wSiyBRGLlTAkv+LILBx5LugthFxbKLvyLU1Nq/oZx6Fqd4bVm8268mmHjh7PoZ0gllhflnFCYxwtpjotL492+iABHHaL0QhQwUPncHAz4V4X28AUA9p6kEnsi22q79fqWLvMOKqyubKrx9Smm2q2Q810aRhoWJBjsatNAypTe5Ht4mV7FLh4wcfPp6AQJziGlIgr/iSMkDeGXvzE/o1nWrKqWmTGUa1pXsesKiogkXUPAEkl1r0HE3jzXStIVXkR+uwwkNn5wME0JaPnZdQiZAkzk3k1MxpmUEk1VL7UPo/LqTF6SBfc5IYcN1rGthOYTwnM8EzAFOZr6IDpMRIEi2VPMPmi6Ll/2POttdm2drWlN9vcW8JeP0I3HaauldCteWynlhuQG4aLTwXUVYOFVOv3nr3Y4ACbfQVvGDEdDricIKMBu4hIZzDgUcUlU8YXrx6tacg23FRWjpWemco80VxibbT92fuHBvSjd1dP/Hz0mLUlz3gpu/LTYuvF7z1/YQ7LnxCWs3w8jpdIoKPJKXZvgfrbQOjcQCTf8rGCbtFYxlXWyQz9pKJiVsesPlgwkZwXvPKjCTQTQqqTl7IYOwETb4Bj0/ve2UxJRcub82IEGxQ8WSWkgsWtNLk0Nnse1/b8646lEKRZQ+YZbOYh6ToIxJCAKslSJXMN6oZ3AsGGC8o4caclIDAgkknIzIfXh7HpOrKGvv/0xcOVH3+dvXqc+qjiR5/+/txQyxhqGkOvfDL3yOn6QkuHzjKsYkZVLPjD8rgrlt+Ndk+CiAqEUCAGim8pCoYOSRKfjKKhZfTiPx15+r/rLLVac7uOHss3jh+n+/+VreucBEquqSjyh8EF79lEn7UtP/+nplff75tYgQw7UugHpD7YRiTRSQwj4iWFAsG1cDCGUJcXFXKfqUztcm5YxkFXAliN1KKcmt9eHyed+eS5MOcw83drupAUFB5MeFMXR+5FVMxcyzQMCE2b8IbugYEJN8YjbHk4pg0dYTM5dzY3WlhR9+7V8CIu9gW3EGzOt8JA5gweQgm/UdK4FrUYiQeTo5AkxWs68kZSQryM0JAXvfhq51/em2gdiM7HIHd5OQSGy2wUkpxO/Ky9wASFe9nVvrynp3Ms9nzjjeNcI/uLztcuz17xoEY/mk6gsQXUMIw+aEOW3w4fs9QV0g06rl1h6VOYxnJoZ7Fx4Ls1nX0+oK+APAUs2NaikJ8O5nYMhOfiBng8wA2CL1cEE/arEUcE/MwQCq/E0FQQUS82a7k2GYdZ81mccwbRKpzaCu5icceTGiv3Dky8L42Xod5FVMZcyjJ2EwP8QUsmUUTxJzyYlIwjnxo6StW2+yBtF7Y38TCfdIannWRmSCElImnHifQ1wjmEkrdQdC0SWwsD4+BKEFpKrsfATotHIfy+EQG38kQQPfFcc7GpN8/iyaLG1Zy70DRRQA8X0t2FTFuRra20+nop11pCtx7huo6ZBkuo4fyq0TLTlKLcQbqraxlnIdP+Rn3UE0IzcTQdAlIDohbDEANJQDUErtMCcZsaTPjl2GUQQhC3fu7smI6+omL7hTYkQgJjMkfjQYGJKAiyo0NR8CPnlr+jZWHvKjiZvPfaAJeuD+F37oQR+AlF4SRn3Nmsu8w2WPnz1rF1sFTA5iUGNHZnf0Ew4c1sKBLfDMe2MJsNibhEALI8WzcKxdHEMvqwI3Lc0pPHOjWsO9vq07Du/++7XWrWKTeMZumH1Ox4jsmZQ4+rq0YVJ8Zyqali03LW4275yRkZsyJjF9SsM59rHolCq4wFFJsOL2wkQlvxSDAR24pHoPF9LBaMgadS6m7gJRPxrpHkTuxcm4+h9ztXi6x1MrpLzpI+W9BqC2cHCBObFEv7yk/6QmqObJUB6JgXMYQQ9avWkuobKmb0gYCJACvlLxdqNbHuU5n8Gs5RYrlpe3UogLflobUoyCj4J41U8eeC1OG1nviQl8BSKwuf49gXNAjY1jOTVPmDDwJKRDYS4BHQnbyYx46D5WRxQoadxSEzO9OMI2n6YSVrV7NjWVX9BTavmrJnM15FlVte4ZEb5mT0hoxZUTMT+VyDA/dOWQaW+vUg1LdAVCcKzfGApgLz/mIyT6LkiFMNu9DIVYe2oN3tSgLVj6I8/Wdq000ok+J8wpr3yUzJIeg46QLeeX7P1BzuBgJGHmZYRGtBdLZlXWP4TMUmwynCVeLw3D3wM+38McIP3gUpQVzJTHimGK/SMFbKtb5Z5/dvgfYBV/Q9BFMC5/8nSDn/dpseTBgw/6eiqJSrzzM5SFufdLP9IW7kEDektI7nWcdz2UFVRUuR9aa8ollWAT3Ws/QjKtqtYEAyyZklLe0pZK95cMBnHm1uoRA0R+BrE4CpKRkpIg4zCZ6w3x8iJrEIbN/GN9HjP26XV7SqTQ5N9QzuXYOPnB+DySMzT8hMfHD31vLmnoFpA9efggWagF3N8iZyhNHhmloNSwK999sA35dkknM+cENTvqyqcU1V58OWy43DYKUK/76QZCJCi0gFYtyKgRds/kJmJWx2Y+D18caQsuJTOWcnrMNpZne6dVxuGVIZO3LLmw5XXql4vvP7zzaXsRcePtWh0bdqcKd1BeeRswEFM5ND+YrptkYfBBDnUWg9HgSISL4vKTHhSewYADyRQh28aw2jlQ3wip34ZV1m+WU1O6alJ3JM0wpmRs5KwGSekJmhiB4v1N2rd9szXwRM4gYQPOBSyRSPgNgNxNBP3/Pm0W0aGjpvgLLjgGxvh/v7nnI475JJRNMLkglkOOOVU76MSpesYijX0PadpxtvBsAoxhsxnArOiyjS3gZakYqqTXqSSs3BTjsZ/8fyjtxfXBaDGX7wR2widHEoUljdihPNoBwZctg5h5puf6Tmxqsfbfo30fgShJmnEfqkD5Uy5/PZVi07pGKh2bqK9eRQnmKq88X3x+exg2p+fQkunQ8U4xNBLOL4O3ZuE489Bhb5netx9LemdS3zee4pe7phXEO5FVUuBRP4ssAEeGIwp6XgDoYlkYhDVfVKFPVPoyOGz7PLO7SMM4v2ZJh9h5iJLDP4fvaD9FsL1dv9NQmspOsW+JzcWbQniwpAgzPLqJape+yF2gmcyBaMhbD0IFYzNpgh4Ah6isAoFYAkWoy/meTFSdFAEgZJmRWJ7K4iZHm1S8u2y60TaZxLZp7SmOZzadcxU9tH7bDVX44CviHlESfftU6gbz/VVGIeSj/RL+fscm5UxdhzmfbHn2mcxOx10EMFSGAF/JKL4qOlRIdjJ2g8CvmbKLy+EV0No/oBVGj4PM98U8FNyDm/knFjB72f79L2ANUcoW6W08AZAZJJOqlwNxKQ+LkUQW9emC+jruQzwwqDM40ZV57yH9CPKc3+LwtMWbQLwGScyaICmfoxlbkvy3LxmY9cM9hVQ6jWCAkmL6HgvzsDk/h6UZKRHH8S+ttAEEY9yv1TTTXlnvEqql3plF1Rbi82DvzkL/4F7IYGp5FkzMXQuy0J7eOXco3DGmZYxcLIZdqLyj+o7yebByH9geSXSMBEvhQn2wUhUJyIhSPBLYR6Pegb1KV8fbuqahRLo4CcA3KEL8UAh6p22qukJ3nJRK6fGB8kchrGO4VAHD37ev8RriPHMKzhHA/phzTVM2m053ZyZZsyvqsXp5ZMSTAZ5w6ddGstXqWpN99Ue/4mmgvjGFkCUuR4i5z8nv2ASVAnUkkmgolMCBEcQYS6PYnHbO8crm7Usp1p5T0lNZNFdH9R+YUmB9hAMRzk34K2DsBSGUFoPYE8G8j4s968iuY843Cu0Z5rHC6k2v7NdvnaEHQbh38p7D14WjDXIDVhYckHvAMIOZaR5RcDhw3dhzmP4qQLSFfZGbkJ2IXknAfjyQc2iQnMEjK2b25S3527tpkEMIG+Skom8rvI3EXwIltEyLmJTjzTfITpzDH2Z5smMmjnPcq0TP2TBOSlAhMziXWcL8s4l2VYkFXOyo0BOe3I+EHTI+zlHj/s2JewvyAsFC7ibRHvGd8ufyWyGEJ9kocC+FKCCYKpy6jy2X/qyt84/mSrTn+9lLlZVH7pqd/3ji7hQMoWhGWImYWjZoCT+SD6qDn6qOlymaG12NheTDWX0ed/cXYMSOshwxabSLvxBD60ME6kC8ZRMISJo+cQ+vk749rHawsNzjLzQmnNlpqZBzBxHsCTFEwCkvD9Ss6nMMM75/8LgGlKSYNwkrGp+JniQvZPCFuI3g30XduFY2xfsdULWr96m81ELmKvS/zizws/UoxvE3KwRTm1KDPMyAx+tdFRQveWP9fjQ8gTAea/Td6KlXaHFmzabSodY2jfYCK3PYFQ3xSq+X3dEe7t0sqPvmVp+Kbx7NW+jfk4WgNOKIAG5uPCpQAJCApGE2huC1l+ev5Y+ZvHDGe//+PzbzZOTmGLKphYgiUAlePCZk1EFcCab48ZQfE1BF1Z3+kKF5nqC0x2jXFKY5jNoRfUzLySnYZ+62avzOSRmXjhJIqlBwAmTF4wKWdT0RASMJEaspVIeDWGOpzoWFXtUet4hqHnIXoIe1d5aD9AMJHo77SMnsVkc0BeCMyqRl+Jzad+ou7MX+zjYYgtrIAJFY8mwAcouAG/CJjAA8e/HxvKc7gKqtEV++t5/+/+YW8eCOGahUgIbULIGQbQ+ODgMoj70Aa47tYTqN+HbngSE3FoMTUHKcLBMJpPoMVEPJjM0BLBhG1wvAOA6upFhG4sonzrJa1tMIMez65ezLUuK/R+6IrGQuIvzuYD7UY03QMDE9Dd0rOYWWUPMJHpWwN+VBDUmwidu45K2UYgYHwS16gLpSYyoM7lWby/uBza/QmCZBKQBF8H57jMgSSne3OtfkVFt66y9tVLK64wCKcN0AvrJD2NBOZut6dLbs2xPOBj8uScj7TiCp5wDKzmJSyzlxFaiaNFTNsSgbw4iMPgDCsSO4vyaiqGIlugSiN444kJqIOLKLgOV7gBxnqC7KexcJKCCQfgYygO/skgeuyHV9SW3v9VOSR/cvoh1plBj+dWT6vZSeCRMvvTzWAhJW2me6vmkjE+cAEIbBFYoEAy46KcmlXRe4MJhxGj0Cwb703cm+i5tz25XIOM7gHvAAAINDEBE0iL+wOpPcAE1c1ihkxmlVNN2VX6zjLr1dZpNAl3OrgJfJNAOUKiE5JNxjYLSbCl9gJTmCSgSsnaoNszQrPh8Go8SrI7EyC6gDBcAC4GUyIMQkr4F44BpWAYxf3h+RW0uQ7e+y1AJo8k0S2J3TOgfGEdE3/EMkJn/tiXY2zMYB2Zp5cOWLyZNV6FzavgJsAXymGuRDP0ShACFUnr+96oOQIg4YgJZIS2qpDoMquivDl0L07b5X+wOMtgWcA/SA+EqQvjtejeQo+azuVWNag5L7TL4NygodmAnFlQ0EsKeol4zEi9r/S4W97c3TPbgZUs2ZFTPiXlUtKjGrbl8KkPR2MogMLz0TlowIUFBRjhAmrwSWp/gSCTsJIS3IjCk8KUYHTixhuwXxMS56Mx6GMQxJCC3ruSwXuQ4hDbAzqKCB5BSMqEWgi4Lj5gQi4RynFxz+ZgFIVWE4m5OHq3OXiMacs2jCq5yUO0D3NskpUMuV9yFmpiM0xiWazU3CbnO83tO55/gBHPIpnBzaWzs3A0zWWY57NM08W2QHbFja/brqQEE544WBnAhRBHm7hLECzHm170b9Y6laH3kB7KNqBZNjctZ+a+DDARxQcMjXLKJ6c80LeE6S2wXal8uXYKIhWwsYJsMjy2gymJLX4dwX8EYaDgBIf0jjfh9cWHzkiHOKINoUGnZOCwC/+15MvFI7H24SgacfibifVNwIRdlEDhFAyi8CxCVwbjx+jPS6hBZcVEut6jss3zigbLCciAY2e2F+zfBzDhhjskOyqdnT1EBQ4apx4y+B8y+NMN4zpDe2H5ub9c2dahQDJ3EIrAA/uRSQ/hTdxy6sO2ULG5Qc305Jjdh8odEC+DpuEQFZJKI+n5Ha8DwSDb8cbtkokHkwy7DOSUR055lPRonrmzgPn0159OOEPggw4CLmBbh20m+E3iXSS/TwImcrp9EqQWDDnHfwc48B3GkxCUyLDdb8PmtOTLtn07eUDeBFAGLRlB8eloomcWfbvmU91J4E3UWXxq6/xDBr8UTPz5thm7H2CCzyQklDIukGWaVZrmVJZZtXU2zzpWarrw47f7phDaQzIRMOElSlJFgwngcljD5QYvn589XN2U9UR7kWVaxcD2IcPkFzkIpDDavmK+qLDdC0yZjAcS1Smf2ujKOtFVwHWUcrXvdiZmcUwjCKUFQcwxCQm+JOrC30vpTZfcaWKvbDuSNxAwYsUFUlv4J/6R/1jh+f3+L3odYP2CziN+vrFNpP/lpSLj+QKqXccNyuixNMqXTrivBfPlwYEJyKvdhDcQdCvlUxicSuOIjrqm/2VtAO8tCJh2zAa2/gizK3gAsWmAC4ZIovT4BrL+7mYZ1aY52a9mIdJygBs/aHZL2XakkNohYO7pQ1gxhIZBRU1qjJMagwuIpis6C7m6eg/sqFfiKAjG71YCcnyBUpJwsRGVk1R4ZA5EeO2YEt7ywZJNKtx2Spz94if5Omy9gzwCAw88+KSV7TxCT71x87DtSi7TnsMOKdnRTM6Vxk3j7l7Qf2bbSCGZvujS3XWbgIEy3eSG2aZ8h57oz+NGVJWN3zxzpX0KeD7WBMm0Y+YwmAh3VAjWssA/FMVN3+CdI8voUe5KMdWZVdWrsLkPnXb/L3Y0zZRM5HswYMLUv4An4DClptQGv9rg09I+OeVSM10nX2p3RiH4io2nYBytbwFBT/SrCCaQc2B4hbAjZi6OPu6KH7Y2aNlO6DtI2zMZRzrnPWiC5m7Q3euBgymdmwTae84rY6ZUlLfY6i5k2r9x5tp7PRHSf3YLJfaQTCBuE3x2KAYTrlaLQktTnH+9mEBN4+hha2OeZfBr1PD/ww0feBLYTjGryRTOyoAthhAbuuerZOcHYlr6SRU1mWOaPvDEcPZTS2nUgM7UfOb1kekQ5EFANQuAaXMTegqAYb5TMokyiZzsWl97yrCkkLnbMyAOgdaeEbS5GI/NRFHvFPrWqcYcul/BTWSy9gzWkc4BYfoBMwzMtSfMAEHVvZVM/GcS24t80SS5AOgAQM9rjJN5xv5Srv75dx2jApNWeE/JhHU3AIggCYzYOFSsQmINSHYo6EHodx/N5hsb1NxQutX5NbPrIOchNlo6N7ndAyv88m2/+Z49SSaX9LCW6d051fP/b5Ury+rLMQ8V03V/vbi0iFtfRBNhLJmgi9hOMO1A0i0e7tCGd63mxK8ABEK/nTgkksXn48i5hQw/7dSVt6iZiQzGD0weJjduKTF7wAyNSu4vmABJWI2K/W1IShm0tZiVsQtK43yO0VVMXTO/0uEIA7neFolfJXgDPPUyBKYITBFBIqaEOwHO4+DoDcfAg/vrt33H2euFJs+hCsjvOWhyQE9tfrhlJt/9z1fhJ5dQ/2CmGICpjJlUGJw6ffdx9nKTnS+9hVoT/C8JJuGZu/lfBMQtTvbxuYJBAWk/Mwlke2Xg2KkRFe2C3ia0j1QHiKv0rkj972TdAphwfxvAkCvTZIfBuYC3w7qs4hYyn3AU6HsNL7T2z4FJGgYXDF/6sLeaI2X9cbCTxIHZq3hOD+L09S8j+rmO4qquAnCLO9I4AFMmR/BEAi9JQ2qXTXcnP3JvqUZWqpBGBy4DDKapXOuiumo0u7zxUdvFAIImTCTNd5vNJLnZqZeU4CSR7N7we24BoO0fJAI35Uk0Dq76lRgc58Lojx/PFhvrc7gJHFoQGqmRahMh6fT+rk8pmEyOTPMoDJMDeKToqQLrbK5+uLDiynUvxEAXY5vrsSXYm+Ec9tuACVfE8tX4JFaAPcCEOxZK4FdiqG8SPWqpKzH1KOlhoG6B/k9E3fKeifuEoVt/rIyZyrUua2nfN5/yl1HNJ39Y71yFHccq5pDjXY+8r0gCqNueSjG0HTRJo4qkufHJbkI6gJgXsP0kinvUTMeg5eblHvTt6ua8yg4tTiiF5SGlnRTO95OfdOvJudVfeTUHLDRJyQQdglyZPxgsYkZKjdf+3gKBasxqhx1HwHoGrOh3DCYIeEFECUaCMHvE0OVhpKt4P4fqUhsdSqNPbgzIaNC7RDjf35W0h8SSMdNa87K8yquqGMuv6j7O1v3qvUlfDE0GIad2Qxik2fw+j4Q7gBxx+A27F4mTUXIMJqCMUxzSxMvd5yTHdzKBemfRE09fzzvRlGu0KwyeLAqzzQgAkqLqgYAJx16hltqVwdll5nElO3zUOnaYuvaTt1xe3Ed0DSU24rG1jXXCry+ASbrayHlylfFhLEmyGO+ixbMX3wwlQrh92xsNc0fM9ZqqziKzL4eZUVELcmYBGtkA1TMvqHad3Bs1l3qdMdOZ1EyWPqA2+HL0o8VUdxlT90Z99Mo4qnOgOic/6l3ojkajE4mjyYFSjsZxJI4GB7rtqHOiqw5U/rMB7Ylr2cZhtQEcsFkUWEswJIVl5Hz7NO4xhyBghLHHeks9b3zkhGSCTD5ksAOYLGNFZ0YPUw30T5rcQd6rtAWEL1ByLNZpYcl0Z2ASailgpwefRTIrxjZR+c/rS9nGfLpPC2H8OTmzhMOBM9imSYmnPSbiTn98ytcz00AaRs3IjX610aUo7ytiB3QVjXmGq7n0RR1znoxc9sIdjXz2gjgKmAspRz59Xhy59Pm9x8Vc+mI+fb5A/9kRtlld3qYzO+SUKwuHGiFARHjfHzyYYPFDqgn0wrMEsizuTPOwlmt9zPLp6DTwBAdRYguSsaB2VBRL+5RMEjElWKNgWvB0F4loIrqGwgsIjQbRN2s+PGJqOVbt0Rpn5PRKBruUbpp78GDCcfWpNCaQwfgzGY+ccmlpj+yEXWuAdqJqdlzNjahMMNTm0TsaGtOoOLK50ZRDy46IQ82N7DnYMTU7lsOMFVH2XP1oviWgNPvTWGAyxdEhF/Re+hIkE66iZqFAAPqM2+azzN4s6+jhp9vPNa8tBNFybD0GsYTNKApCb71EEPpYJW2m20imvcGEdzixWHA9sR7C0ZlrdlRa9X6hsT2H8iiYuQxuIYObw6ThD1QyiWBKY/yYEdpTcGY5y+DPKJ+VG5dx0jSfbJ9lnpIOhWlqx5D+NQuYTLcNJTe1eyhYvziEBCMx00g4geg4DAUT0BqmFCfdSnZWbp09yPnSWABTFjQX/FLARGjmQDLJmOm0KoeSHc4/1fHi+aXZKNiIwOKRmI/yYNrcBabbbGGkmxbJS3nrCho/4AwywFwYoXOtsW/YWrH31qOyzCos85CftW1b+4CARSBFLAy4qcnsBlI9DUmuCtOkZPDIgFQIeiqLgiOOLuPwH6lBlWQwSpLRBIikqlPdbfSIu10xsCi6x4gUJxQPErEkpkgQx4d0AvcwFUSD6Q6TFjGrE+RDY7I1r4YZLjA1ca9e9yVg+4ZDlGGIdmJGBp6XQSg4Jrs5CURSnO4Gk/QZ4RyTXiBIQUQ//utEjrFeVnkzyziRbV2CufsywQTTLfXIS0kdJEiaFGWMFEwYT3uCadvHijjbZeXsxhNvRG+bll7yZnkAAB9QSURBVCQs+A4C/OdsQxL2ot1vMM3LqXk5PaVi7MXmjn9/8pILG924LIBPaBZdj+AqEpwddwomATq7VV8CZxcitBSDqqPHn28pq+7NY3yZ5bAf+VLAJN2tbLvrEoaQryqYdgJImn5zf3dz2FSSMdNKGjJxHztT3xMAmbQWhh4WQs7WNle26LS7p2CKolAwsYWAqqBtCn2jukH1veuFXAA6j29bgtKFJZ4n16UUBPfq/P+Caf8ziUOrLi09XEw1vNO8Cj45TOeA3UMpJNNdgCmF/pM8hYm5cVQ4nIiv43YLn3Sib5haSthhNQRYCAGcyN+1m43q/oKJGMI8pG4pmUDHMZNZlF8c25SUqMv2PtnT6E4m/PPmf1LhwqeRPAs4EttcOArcJoLNvi9Y7MdmIq/Z4VjhvDLOUfy0Q2eo/9lZnwc3c8eZgOASEiWTsK0nmooHwv4lkwQ5KU5JywCcXBAPku6Us1H0x8+W8vW1OdZRYAnajadtzsyvBJgEJPlEJPGeaNEM2htDovD7bw0mGetWmwbUhlrbqwMeHC3AHOQENA8QTBDIjMVRNAi0trjMfg4h8+9u5lj65BafFEykk9O+dP+OdXP7h6LeFALMeDuzH8kkQdK+wCQkKwtiRsDZFwFTBjcj4whtVwA+R5BG0pN7NW/pLJQriXKOtH1TMo48tv0R2+ejqxDKJQyMJM9Uqubuu2QC3QmFGJgjGaG1SMK3gUa30PFT13TWQRU3Jmcgj0DMprhXkyJOBz7ZDiYsyXEJB3bqgAfIp2I9KnZCwTkVpjG1ZVADlN89OlOvlunVUP1KelROuXCFgk9JTcmNfhK65pWdgJhMdhLS3k0+BedUs2PYMzmkII5QbiiH5YeWHQIHKTeu4CbUtE/NeLTMuJYdgdVPBjeiZsdVLHCYQMUSN5MBYOI5u1LiSTJvX0ici2CCnG56SsH6lYwrh+kuNpxrdkBDKeILIBnqmBEkaYDfNZhSaLUdTxEhKDQKiMSAmxvSmYMImHEbx9Aj3Cfyx+sKbJNyzk/mCy/BpJUgtRi2g2Ov+ZKCZue5gFdSfjovo+cVzJyKnlHTvhx6QvZ4bwE7XlwznmNuLTlzIZ/7WzHz+iOWs8fNHx4115bYejIrOhXUCDR5pqaVVWA84fZlvgyGpGfxX5fGehScM5/tLWFbypjaAuZzneVS0en6QuqTEv25h6nPi8o/KDacK7NeVdFNWm6glPPpTvSXMjeK6AvZFe/kU+/lMx/lU5fBx2sYxE3iJ/ENxj4eemqbhJOIqG3zk8LuIZe317wlnydS8ECFI9syqzb4c2lvLt2bX/XR2xfGlzA/Swg3VhNuLiRMisLpQYBJ6PkAFYZkBHGq+buNsw9zV3OMPSp2QsbNyNg5GCDSU+Bp22Ttqdd2AkiyXvnUF5wrDWmmMmpRQS+omEAOPZFHjZVQgw9b+/INl16tj16fRfYwsLz5E2gijAbW0M/enz9Scz3rREOB1amjJ7PK3VkUwIiM5LdAtYZLVzNW+RtX5wyyr6PeBWT+U4vt9bZGN5qMAcf8QgLdnIa4Mvfq8MM1zcXlDexPnZ/2oJF1ENg+hMZCqMGNbK84SpnrWRXdWhsusGTB9Synp+8vmJjpr+knNTXLWZQf+Bq4mSJ6WP3Ep0//qWshiMLRGLGPpKRR+wQTAR857hA6+3pI3kko20UYiWBax5GWn78zdtTSoKNHoKMmi/F0P8CEfRCkqVcSTFgyYbE0nk/fPMy0/PSt2bE1NB1HgS2wDFZwV9YA5g6EusdRVPVCv05/PZuzZxihWVsqMLn/f2N37pNdlj8NOjbQVAiY3T/qsLtjQHYQCEOiy9QKNL9biCP3Jvr9B8MvvdU9voC8G/B1cwiSKmfjcDK2jn72XiCbrpOzvTKTRzCbZjCYCBHFNg/7tsW2p2SSLrakNEq+l4CpelVuDGgMnvyq4VJj8xM/rh3fgBKvcDS2GQTDV4qMLwFMUUEmCWCCUjVIbQ6iyhfqi+k2HT2upn2E8uy+SCbcWhM0HVRxgI6TU/NKakrDunPYoUKm9VcfLDs30FyMb23onEMNwxufdk+PboKImsd3un4EHWav5tkGMnG/tpRgSrcMf638M9PvbgzNQJLgJl4zgQhyb6F2L2ro3xjCbTBwG3Q0Oh0KhKBfqnsT3XCjj2/M9U4BztYQmoyirln0vZ93ZlZdk5ucDwhMEBUA4yzzhKuE9RymOh6mP+6eRe516HAXEXtMb8PTvtScFH/7EkU7XiS8H74Ml9kljxFcpr0JBOqo1Rl/1HT+EVt/LmPH9B3bnCsisJKrZ08dJ+3fIOza+BeLKxIS4AUwzcopT45pPLO85ZtPtnT4ICNnGSHXKnrlfW/+D84eOVWnMX5Uxnz4cVcU5EoE6AZ/88lswakOpW0M9qHbvBj4KzivyuZW0622/+p2r+L2r7im6nLXysPsx2VMXanxwlHj2Tp7yBuB75pPQB56+xSq/NmNr1uulxqu5v/g7B8+Hg3EQYx5w+ilT2dz2WYF58TaHwyAL6bmxHnYMT9JKSWDVt5TubQ3v6LrmOHT9xqXVrFNEsK9RTFTNUgm0HRQFQ2E6OLYhjEBDcTPJIAB3ns3/4T3pwATwRZvjCfQ+Z7oY7a6XGMHbJrw/kXEkHhyr8BEuBYIe5DcYM+zjuVZu37y/gLQ3EbQ9Bb648e+kqpPj1b3acyDastgkbX7YVvtdR/IpymErrhQvul6pmFARlqRbMeTjPVqLd5sY1vNK93uFTS3jtbDyLeMan7Vkl3eqNIP5nL9h6ubLK+1OqKwkDYR2FXPvtlXZupQl/fnGu3FdLv+hfr+GdB683H0Rt3GYWuHiiVgklKaYB13xwb4bcBEaImyGW8xaz9CN738rnshgVajaD0SId1/pDbTVwhMGM48O8wiQmebVvKMl5RUn4Lz7ARQCgsguZK2g2yvyRKfB/5XwvUDPHnGkRy2r/hUx6fjYM0AO6UTfbem8QjXpTjRrTE4lJQrt8adb7v5pyY0uIG6F9DZNlRC9WuNwFy9WzLJGa/O5M3Xt55+pdO1Cp+5hNDFns0j9EcFtjGFySujx2SG+m/97EL7PJpLQEOfxmF0lL6gKu/OKnflsP4CbqjU+GGrAwif1hPo3WuolO3UsG4FN0vyXu6tZCI5FEImBeSZaEx+lX5Qp79+8rk2yJ+Mo40gqd7G0ighOX5FJJNAKgIyL4YXqD+Bfvy2o8TSpOaGCA0jlCHw2X24C9G+siZE0OwQ4+LzhLCQkJq5texYtrG9gL3cNguWCnRnu45KjddyjL0q2pFjms49taiq9n2tvFtr7CxhrxdUXTzCNueX95SZ3VqmX8P27hhaprfQNFhoqDv9X22uVfjMBYT+dHEhn7osowbh53ButaW3wPx+sx8Ez1IMfXQjUUY1a/Vj2eZFFRNQVvQW6D9rcUIPp7UY+uulzWPmnmwMJpw1BW6U5Lh7ycTTc0EVpQn2uZm4d4gSetE4ik393/nP9r45NBNBa5HY+iZ0WYSGNFIk3aGauxvVtvs9UmUnKFdpwjhQs0N37xCa2EDfffrdAuu1DEOX7rQn3TCCVQnmaIeiraRbdrs0Si2lpBF1ck5KneT0tJIC+k4V7dKxozp9E/fb/pE12EDNIfTKhZVCW7fcAhWkmTZfhtmTYZ6QcQ4N5co1OIqZkeOWsUK6+7CltZT+4DDz9yPs2aPcO8dM/zhuefdh63vHrefKzJcPmz61vdI4sgCSaSGOXv5kJY9uUzF2SO/kPBq2t5j9rGcWrSXA2P/n9fhhc7uOdWiYKaXRozb2FdCXrtjxdjKO3mkKFxmbcmgnbgksbOIkGJI6we/kHDbOkD9tDhyy+NItE6oaj9rkkJV35+g7vnmqvX4ESqyCsNTBQUgY0sTY7e67LFhLKf6yn9hcirelfGo3mHCpp1jHATkMYYynTYQ6PKFHn/48m21Um/qyGGBlgEwxzFd578DEE8GqaEcuO5pvaLa83GNfBRHiR+ilS2u6mpvp1rEDNs8hqyfD7JGxbiXtVVFTWsNUdqVT84POQqq1Yx65QlC3OhlJDn8UuaPonQ50zPyR+eX64TmAy3QY/eTsXJFlQEVDb2M5AyKtlL7YOw1LaCWC/nkdlVl4MCkME2pjXz5z6fI4T2p4tjlYQNXn0OMq6C/tU7C4V8w9A9PMIYv/kNWjftIvY4aUVX359E3dyfNnr0HTRMwoFUvglouYSF1o4JK6FIzc5xQQuL9gwvIpGR0kZDEET2GE3mqcLmbOAaE2NZTGQcd0udGvNARIFeV+ZBJ5zZ6SCfOdyxm3knHpWHu+vs388qB9GYyD2Th66dJG9qmbh2zjB62wqVQxARU1hVlspzXGyVzaVcwM6L5/vskJN5sUJK3hzc5KAtopzSXQP1pRif7c6Vfb+6fhM6eC6Id/m82lQW/ePZiYMRXjVzH3EEzgFk43+wFMFp/2TEBBjWgq+45xnS+843cFwbNKxBImiglBsttt/n2ZYJK6CYCgD186sGNPBdFP/z6UY7yq5PozuOFMxqE2+DR6SJbdP5KIRtuBJ17NMUB9KWPdcsatY1y5+k7uN+Ojy7BnWY6jly+u6E61p1vHD5kDcnpaZZyGRuFGd65xuIDqLNRfK6XqHq1p6ZpFM9j5NI8AgjMxFIjC8EXQ+x3oGF1ve/nGJK63D4TQM29Og5d/DzD9oyVRYr4Breho/56SSQCTivHz3Qe+mHCScf4Msy/d4sE6DuI/BdbxI2wP+4th1wYsEugxHAHKQ6CwImmTXwUw7b4GMUYokjwSRmPsK0fTK1HvBnr8J9dKa7rSKm5oLW5VxXgBM61gUsRYxH3f7hPCW7frCH4amcmXYQb7Q0W7tVW9ZUxdqwvAtIHQ2y3rOfQFOTOYSfvkRj8IRbNfTvVY/+S0b6LxNVRvRzWv+3Kh4celAu6iOEipUwF9tdjQedTQ9uTvQdqtJCB+8sO/zefRA2rWCXqK8+SwA2XMpb4ZWD+rUUTApGXGVYxfTnnUdH8Be/mKA7xQqwi90xIupBtyeDD5BTCRoO+O446Ep1s9xGCaSLc60y3Q5CnT0HX0VO/j/3mj2wuqeSuBNuKxLaAKhta0fBeXu2XjuJdq7hZgInYT5qYFUkDSipmwqfTOoX99uk6jby2pmSxkJrWVnnsFJn5RmgFPWQZP1omeo+a22iG0EAWvT8ckesT2ebaxU22EarUM2plpsuuqb7zdth6Iw+0fWkD6l0ZymE4V269kh5XssJwZFIeaGj7M+Qq/32b+VY9nC8A0uYWe/etcPjOsZiZSgumd5nixqU1D25X05G3BJIilHTAiD2+Fnh22OSwnizPdOk76mGnYllz9h5/3ocU4UI9EIolwAjjLMTMwbNtg/HcBk9gnHiiLcbrMTAzV2VF+eb3yCcgZ11Ig3gl9bIYJSGR3jFSSKcXk4k/wp5uBIzvDBIlBmeUDpVz7i+/6nWsgCaYj6KW/j3zr1E2dvi+LHc4wDWpPDRSeqmuaBot7GaGr/YlvctcL9KMq2oHbtrikRyXl0p10HzeMPP2qc2ReANObC/nQWBzySXZLJhFMkMlJ30oywYYOIph3OpJQI7MERLwApvF020iGdURh7Sysrn3+A/sM1m6xENyAGBDgw4AIyn8LMBE1hy81AU1LgaogEo+D82klDibIXy7GH+F6y7jxfBM0KSRzIcAItD4MYM5MoQFTTroAJmBbzzAFsquXVZQ3n+1/9EzTdR+YQTMRaBnw0lueb51pzabrNKarJbbaT8eQI47cMeQOof/6wP91qregyq00AhvHjgGRduNsyYneU78eda8BmLABPp/PDqpYJ+YhntByfSXspd5Z0KpLcfT3lmixqVXFDstZVxZjV7I9RebaKw4w8JdAzUUL6QYtPQpJVLjEKuXvusWTMpwLBYWKfEYGSYryZbAOuXlEYbmZY6n77s8u+vF+IpjA+zYskaIJ6MkBYJKwa+7WM7d95v6qORJ2JnAnTJD4goQCc+hvHAmj2DoCDhDTC23/bu0+zI5pWK/IbZ1h8qdbPKDyrU6MJxFMyfzGveYX1BzGH0AQkjqmlIw7l+4+/Zqrw498QdjMT26gkTn0eVfk0gByroL/yb4KjoP328O67793jHXqDAHomCikoIgncsqTp3cfruh5+lfjzhnYXS8i9OO/TedQHRl0v8w8LjePK6iOfPqzrnn4WH8cvXM9VMhcybH1a045D+g7s+jmUuv5C6NoFhv4b7fGdZVXtZQdI4lvxCCmnye9l3ukX8q4wCHzzAHL3EHz0iEOaqkVlsU0w4TGMpVl8BAm03975tJ1zD8J9FzkrmAGPdFFCbnemMzttrhJ+YL7DqYdaQwCmPD2Eu/zoBkETgJxLaMTNfWllc257ChpQgpLzRRIN/sOWZ2H7gpMOC8b4w/Xp8qYaRXt0p649txbMzem4B7P4GU6F0eBIBhSvi3kjcBdP2q5VMx1Hj09TcSSiCHxJIv2qCrGc090nfmVz70Mb3RH0I//saKobFPZHP9iHHpIP6KzjGbrL110IncCAPqPdiR/4jO1pT+NGzjE9mps3QXc+Stu5IxBKPBsJyqgW9WUHbrpUYEMOiAiCcro9vCGiwspwxQ4YJ35F+vcAfPKIW5FbllN0/tU1kkl41BVjebTN/PK32/1AuI3MLk7TxaFGZIg9IYlE/FVpgTKfp58EGBKcR2kGhgvjhim41/EDSQ7xtG3bVeL2A4tO4bTVKDA/JB57qAVfCTb2aElkkk60bvPseXBt+VgplXUZAHlyj7Z9t3n+16u32icRQ4EeWo+hLoW0KVx9NRfpvIN14qsw7nVznTq5gHjzQzWJWJIPMmkfekVzjx2wvTKSqMTeRDqXkc/PIfkzPAB/ZjcNq2wzGZUjBytGb48AVgZCwNc1JU30o1DGeaJLNtEBt2bb7r+mR2NJ9BwGP2+HhWae5WUA4NphgeTQKmzDUzS3yjYVRmmwEELSKZDpoV0buEhvVdlmSp8ejq9/EY+03ncdPWjvqgfZy7gJtnQ+ld0c+84SXG/9vfUlwwm4IqC3QRaCoHZsRBGn7QFD3OX8tjOHNqpgZYsK+ncykHz3EELSCmJ9X23YKJncowBdaVDYx5UmZuLn7xy9MxHpcbXHjv9zzLrh6U19Tlse45pLFM/lsna1U85HzINpHEpwJTB+FXm+fzquVxq8NipniLzpTxzrZLpzaCdaazvIDV5yDilYvyZT3Qfq+n9evXlMvqzfOMNLT2qtgUeMnoOMR6VzZ1r7iuxtBQY3j9s+lRHNRz4j2Y55cmkgLzlTsGE1RxounQTpLCqLFNy1nGw8kbJ6e5jpos//duQPwGSeB0HJYjZiqtydwAJHu4POSle9SWBiVyJ4EolHY+2EsA3Ox9FL5wdPmKpLbMO6+hJBbWSzm4cMC8dsMylm6RpvvsAk7BqRV0AJ/QUJMpxASiYMdmVpl4d11nKXC9hr+vMXWpLv9I2lmVxyazudMsEVq8TmLJYjB/DCU8syUAUWUU7NMyghutUcd1ykGH+NMZPkjzl9LSW9unosXymO5/pJlmBMm4mjZs9yAYyGI/aZM81DxRwN/LZNh0DDiowmCCmNI/zHZLMcbeWTNL9Ck6E8mVRY3mn7DnWziLLhRPPfDiPQ4e4KABPPSQsksKTFJi466e+VDAJ1Be4bwnsJOIIbSaQJ4zM/9VSyjblGkdV1EI6u3bAsrAXmG49y9tgxGNrRmNbOmjwHTR4NLY5NefVMe4CypVPuxScM8PizDBPpFvIwF5js58PtkvymQQwYTMZtgsu6EzPOTAjBbjvgX8CW2kqJqCFKganlp4AxzcDxSfpppk0buoQMwFOf3Zcx9rBLc54VIwf1DEOUGIwTYl8X7f+mYLA5luEQb9eY7/O1qMzNzxcc25kEUQ+HyXhG5kQ6uq7hk3qN35ZYBI2dLANIoNgCToFLiPUtYT+7akr+Uy3mvZncAsHrDMHrIF06ILFc4tLJ5d4ZaRHAUPgdxEmGurRSC3D14wBZfWKzrKkLPfk6idz9d5cPXQ3gL4dOHcgwzyBB2m0FRBzgCRBHpBPYCCDTeOGIVZpApkplC+nc5AFRUoDhN0+ULmRVBCQdiZ3GjOWRbsgLEjPQbddZg7TN0rzcHiJKPwKmAHpbxd+KXnShzs/e1TcePGT40pDvbzqg3e6wtA1kPwT99WkWVByMQsv+GL/f7lgIt4yAUx4gxFH8RUU9ifQhZF4KXNeR48oWPA9HrKITiZpls+MgiEDvHziEKZ4F5jYOZlpPsO8mMbMyI0BHTWtM/p1hoDWOKOiAXbglAI8eYSGyQGxt5oESSR0mNRBGElQUkLgxYPJ5AYBJkiaTGY2nYXmAmkmoPpPM0PriDTOkcH4IEudXpEzSzJ2gefg3pYkiIErKePZC0zE7Q4FetyIUt+Sz1z6xcfTE1G0GIyGI5vA8Mc3nJI4J+/eQEqBuy8LTDs8BjhdGC+UOIpvxNdjmCfzDxddxyzXFeV9WotLbfPz0TcOCilhMAFoTUatKJg5AVI8tgiYpKsZn/PCSVp8CI5m7CEUeyuINXcgkCSNJci7xPdKsLUzO4/s+NJYHxhPWN+BQMLls0TICV8xSV5DONqkr5F8+I5sdyIRU3CkQHS8wpVnnc1kHEpusNB6vfyFlok1tBEHBYcb7uHbT6QRUQNSyUTOpc+kQMttnvoSwbTXlcUj8c0NtLGC4t4YevaN8WOWjmxDdzYL6gBww/oVnAfGnmDioxAYQEk7XfQ5ifdy7xMwesQBt1ZEg6SkWnzBjs9Jgon17fiT9CEgCQ/pk+R8d5aw9JkdKRLkoZye0lnnHjoxpDCNZ1u6HjlzdXwTIow7Vi2f2kYsJyl0/g8FE7Tg3AhvrqJYEKHxLfSdp2qPcDdUP7ippcC2gHQfKKX18MJJot14NcdK9CAH9HA7RpLfRyT62X0iMbf5lOKdpTK8NbOvT9v9+Xf9DLHVRBMNdywmDGDaJ+fV1Z5c80Ce/mL9GPhggxEUDkHQShz8ChahI65o8ZkvoPi+gpKJ/32bCYhYLSPU7kfHjZ8dpnryjBNayq9hJ5WMG/emhc7ruF82xIaTgwcTyXwlSCI92iGVVs5BRuXtBuZMTsGcLNUvogEu2OC3/9jbfu9eL5Bcz07KVP6SMjnvvxiH5KZebdWFN69urSG0FUHhSCIWjYlIStYeSWUSme//M8FEVgbuqRFGaDYaW0Lo4+bNx7j6UqYvj53Q0hMqGvLdZCYPhO3MwPewPZkJq7mkm5hHFW9psT7CGHm7I7Qd4weNm7fyR1y4Tc75F0AT8/s/+ItJbht3kBRyLk31oIq+eObPN6cwF24sgoBZOx4mPc1FGQQn/4PAJCwlzLjKt4V89Z8TR5hGnb5baxhSM5DjkW72H7T6DlqBCYMnL2Bhdw0Dt3nl93QYVSL9LeHNSQJFRMyOkxQAwjCigDwUiABgYJDteOP9eyhcUkqbScmOqvQX/uO5y54QKLgQ6cAVj0YT/3PBhHEEtaNYzydQOBaKIbSyCeHJM38YOmoDYzyHm5Bz/kPmuX+xQjQqHQiiYchY6dgGLOl2T4ACAcQeRwIa/ogJQylyXJRTi8AfCkMKrOTnSL9rP+f7uh4evvAtYpxRiiot0/vYqQ/GlqGmaiMOLfYisRhQvsfjpIRym2S6Pw++ajaTACaCJ8AUEcoQVBpaQZU/by9hruWz/ZhNBUJRB824JzoH1Tx8Kg+hWNkupaQ3dV83bxuYZgX0SFGFkZSUUg8MTLyRBHEh2quiXRrarmEGi+krtTfXNhNoPQK1xaF4LBIPYzDxxd33Bz/bPvWrBiaizrGzX5ROWMND9yOERlfQD565+rDpWk5Fp6JiOMs4obZCSwZIXcIpRzLOn2WeklsCcktAYZ1WWKdVNmhyrbbOqyyzKsus0jSjZCHNnHiYoLAOJ6PxOosn/p6S6kEoCMYv23akdxgxSds8k/aLQ0pnSDLNdx+lHytexl4nGZTnEOXIoJ1ZRqeiYrCA6c05ebGE+rBuFIS3mJmEraVkxVIyfLvLWiI6YBso7vbBVw9M8EtSgAkhtBACPNmX0K//OXGM/vyYqa3E1KNj+1TsoMo0orGMaa0OjWWcDLXJruLGlOwoHnYla1cxdiU9Kg4FNbJ7ZFEj4lBQQ+JQGod2DPKnLHoIhuRdWdSIzDgsHXLDsDgUhuHdQ2kcIWP39aR8RkkPa9j+HKojV3+lRH/O9ptWdxgt4mxJaBJI/kHnUvGBJBfgfyKYkp4Rcc+KNkOJIM7tmosixwZ6/aLvBz86X8Z8WMhcyaWbcoyNWn1DkamdDBKKz2Na+UG35eGRy7Tlse3SoePaxZFjahdGm86UHHlc245B/ppjahOG+MZ2LdcmHTlsmzhymbbdQ7wY8TJucZLHth823SwzNnz/hw0/+Vt3/xyY20txtBwiebcpwMSTvhN5sweYiHz6glLqqyqZUoEphruiRhFaicaW4mgmiqYiqNOLLg2iDzvQX+uCf/h86Y/nl/94fvVPF9b+dGHttYvrr11cf/3SxuuXNl67vPXn2uCfa4OvXwn/+Wr49brI63WRN+qjf26A8VpjcvzxWvSP16KvNYbF8eeGsDjeaAi/ITwkL/jjtTAe8C4y/tAQEcefGiLieK0+knKQa9h9JdKrEs7Db9RHP2xDnRNQYj+5gWZDMBtQDoC7WKeUTA8MTP8bu5oYTxN898oAAAAASUVORK5CYII=;" vertex="1" parent="1">
          <mxGeometry x="130.51" y="120" width="49.49" height="50" as="geometry" />
        </mxCell>
        <mxCell id="Cf7rIsydK2sru3dkDI3N-4" style="edgeStyle=orthogonalEdgeStyle;rounded=0;orthogonalLoop=1;jettySize=auto;html=1;entryX=0.28;entryY=0.99;entryDx=0;entryDy=0;entryPerimeter=0;" edge="1" parent="1" source="Cf7rIsydK2sru3dkDI3N-1" target="C-7WZ27gIITwvjTkQEJg-14">
          <mxGeometry relative="1" as="geometry">
            <Array as="points">
              <mxPoint x="214" y="290" />
            </Array>
          </mxGeometry>
        </mxCell>
        <mxCell id="Cf7rIsydK2sru3dkDI3N-5" style="edgeStyle=orthogonalEdgeStyle;rounded=0;orthogonalLoop=1;jettySize=auto;html=1;entryX=0.24;entryY=0.104;entryDx=0;entryDy=0;entryPerimeter=0;" edge="1" parent="1" source="Cf7rIsydK2sru3dkDI3N-2" target="C-7WZ27gIITwvjTkQEJg-14">
          <mxGeometry relative="1" as="geometry" />
        </mxCell>
        <mxCell id="C-7WZ27gIITwvjTkQEJg-13" value="GitSync&lt;div&gt;pod&lt;/div&gt;" style="text;html=1;align=center;verticalAlign=middle;whiteSpace=wrap;rounded=0;" parent="1" vertex="1">
          <mxGeometry x="230" y="180" width="60" height="30" as="geometry" />
        </mxCell>
        <mxCell id="Cf7rIsydK2sru3dkDI3N-6" value="secret" style="text;html=1;align=center;verticalAlign=middle;whiteSpace=wrap;rounded=0;" vertex="1" parent="1">
          <mxGeometry x="125.26" y="304" width="60" height="30" as="geometry" />
        </mxCell>
        <mxCell id="Cf7rIsydK2sru3dkDI3N-7" value="configmap" style="text;html=1;align=center;verticalAlign=middle;whiteSpace=wrap;rounded=0;" vertex="1" parent="1">
          <mxGeometry x="125.25999999999999" y="94" width="60" height="30" as="geometry" />
        </mxCell>
      </root>
    </mxGraphModel>
  </diagram>
</mxfile>
